<?xml version="1.0" encoding="UTF-8" standalone="no"?>
<svg
   id="svg"
   version="1.1"
   width="400"
   height="565.6451612903226"
   viewBox="0, 0, 400,565.6451612903226"
   sodipodi:docname="fiche.svg"
   inkscape:version="1.1 (c68e22c387, 2021-05-23)"
   xmlns:inkscape="http://www.inkscape.org/namespaces/inkscape"
   xmlns:sodipodi="http://sodipodi.sourceforge.net/DTD/sodipodi-0.dtd"
   xmlns="http://www.w3.org/2000/svg"
   xmlns:svg="http://www.w3.org/2000/svg">
  <defs
     id="defs24783" />
  <sodipodi:namedview
     id="namedview24781"
     pagecolor="#ffffff"
     bordercolor="#666666"
     borderopacity="1.0"
     inkscape:pageshadow="2"
     inkscape:pageopacity="0.0"
     inkscape:pagecheckerboard="0"
     showgrid="false"
     inkscape:zoom="1.5433705"
     inkscape:cx="64.469292"
     inkscape:cy="282.4986"
     inkscape:window-width="2560"
     inkscape:window-height="1334"
     inkscape:window-x="-11"
     inkscape:window-y="-11"
     inkscape:window-maximized="1"
     inkscape:current-layer="svg" />
  <path
     id="path0"
     d="m 57.278,43.017 v 1.061 H 212.964 368.651 V 43.017 41.956 H 212.964 57.278 v 1.061 m 0,15.321 v 1.061 h 154.508 154.507 v -1.061 -1.06 H 211.786 57.278 v 1.06 m 0,15.439 V 74.72 H 211.786 366.293 V 73.777 72.834 H 211.786 57.278 v 0.943 m 0,15.557 v 0.943 H 211.786 366.293 V 89.334 88.391 H 211.786 57.278 v 0.943 m 0,15.439 v 1.061 h 154.508 154.507 v -1.061 -1.061 H 211.786 57.278 v 1.061 m 0,15.439 v 0.943 h 154.651 c 140.924,0 154.638,-0.033 154.508,-0.373 -0.079,-0.205 -0.144,-0.629 -0.144,-0.943 v -0.57 H 211.786 57.278 v 0.943 m 0,15.321 v 0.943 h 154.508 154.507 v -0.943 -0.943 H 211.786 57.278 v 0.943 m 0,15.557 v 0.943 h 154.508 154.507 v -0.943 -0.943 H 211.786 57.278 v 0.943 m 0,15.439 v 1.061 h 154.508 154.507 v -1.061 -1.061 H 211.786 57.278 v 1.061 m 0,15.557 v 1.061 h 154.508 154.507 v -1.061 -1.061 H 211.786 57.278 v 1.061 m 0,15.321 v 1.061 h 154.508 154.507 v -1.061 -1.061 H 211.786 57.278 v 1.061 m 0,15.557 v 1.061 h 154.508 154.507 v -1.061 -1.061 H 211.786 57.278 v 1.061 m 0,15.321 v 1.061 h 154.508 154.507 v -1.061 -1.06 H 211.786 57.278 v 1.06 m 0,15.557 v 1.061 h 154.508 154.507 v -1.061 -1.061 H 211.786 57.278 v 1.061 m 0,15.439 v 0.943 h 154.508 154.507 v -0.943 -0.943 H 211.786 57.278 v 0.943 m 0,15.439 v 1.061 h 154.508 154.507 v -1.061 -1.061 H 211.786 57.278 v 1.061 m 0,15.557 v 1.061 h 154.653 154.653 l -0.142,-0.531 c -0.078,-0.291 -0.144,-0.769 -0.145,-1.06 l -0.004,-0.531 H 211.786 57.278 v 1.061 m 0,15.321 v 1.061 h 154.521 154.522 l -0.073,-1.002 -0.072,-1.002 -154.449,-0.059 -154.449,-0.059 v 1.061 m 0,15.439 v 0.943 h 154.508 154.507 v -0.943 -0.943 H 211.786 57.278 v 0.943 m 0,15.557 v 0.943 h 154.508 154.507 v -0.943 -0.943 H 211.786 57.278 v 0.943 m 0,15.439 v 1.061 h 154.508 154.507 v -1.061 -1.061 H 211.786 57.278 v 1.061 m 0,15.439 v 1.179 h 154.508 154.507 v -1.179 -1.179 H 211.786 57.278 v 1.179 m 0,15.439 v 1.061 h 154.653 154.653 l -0.142,-0.531 c -0.078,-0.291 -0.144,-0.769 -0.145,-1.06 l -0.004,-0.531 H 211.786 57.278 v 1.061 m 0,15.557 v 1.061 h 154.478 154.478 l 0.021,-1.061 0.021,-1.061 H 211.777 57.278 v 1.061 m 0,15.321 v 1.061 h 154.508 154.507 v -1.061 -1.061 H 211.786 57.278 v 1.061 m 0,15.557 v 1.061 h 154.508 154.507 v -1.061 -1.061 H 211.786 57.278 v 1.061 m 0,15.321 v 1.061 h 154.508 154.507 v -1.061 -1.061 H 211.786 57.278 v 1.061 m 0,15.086 v 0.589 h 154.508 154.507 v -0.589 -0.59 H 211.786 57.278 v 0.59 m 0,1.178 c 0,0.314 17.337,0.354 154.625,0.354 137.288,0 154.626,-0.04 154.626,-0.354 0,-0.314 -17.338,-0.354 -154.626,-0.354 -137.288,0 -154.625,0.04 -154.625,0.354 m 0,14.85 v 1.06 h 154.508 154.507 v -1.06 -1.061 H 211.786 57.278 v 1.061 m 0,15.321 v 1.061 h 154.508 154.507 v -1.061 -1.061 H 211.786 57.278 v 1.061 m 0,15.439 v 0.943 h 154.508 154.507 v -0.943 -0.943 H 211.786 57.278 v 0.943 m 0,15.557 v 0.943 h 154.653 154.653 l -0.142,-0.531 c -0.078,-0.291 -0.144,-0.716 -0.145,-0.943 -0.003,-0.392 -7.519,-0.412 -154.511,-0.412 H 57.278 v 0.943"
     stroke="none"
     fill="#070707"
     fill-rule="evenodd" />
  <path
     id="path1"
     d="M 0,282.852 V 565.704 H 200 400 V 282.852 0 H 200 0 V 282.852 M 368.886,42.899 v 1.179 H 212.964 57.042 v -1.179 -1.178 h 155.922 155.922 v 1.178 m -2.593,14.703 c 0,0.178 0.067,0.655 0.148,1.06 l 0.147,0.737 H 211.815 57.042 v -1.061 -1.06 h 154.626 c 131.04,0 154.625,0.049 154.625,0.324 m 0,15.439 c 0,0.243 0.067,0.773 0.148,1.178 l 0.147,0.737 H 211.815 57.042 v -1.179 -1.178 h 154.626 c 151.032,0 154.625,0.01 154.625,0.442 m 0.074,16.116 c 0.074,0.551 0.056,1.082 -0.04,1.179 -0.097,0.097 -69.699,0.15 -154.671,0.118 L 57.16,90.395 57.088,89.275 57.016,88.156 h 154.608 154.607 l 0.136,1.001 m -0.07,14.968 c 10e-4,0.356 0.067,0.887 0.145,1.178 l 0.142,0.531 H 211.813 57.042 v -1.179 -1.178 h 154.626 154.625 l 0.004,0.648 m -0.004,15.351 c 0,0.243 0.067,0.773 0.148,1.178 l 0.147,0.737 H 211.815 57.042 v -1.179 -1.178 h 154.626 c 151.032,0 154.625,0.01 154.625,0.442 m 0,15.321 c 0,0.243 0.067,0.773 0.148,1.178 l 0.147,0.737 H 211.815 57.042 v -1.179 -1.178 h 154.626 c 151.032,0 154.625,0.01 154.625,0.442 m 0.071,16.106 c 0.073,0.545 0.081,1.075 0.017,1.178 -0.063,0.103 -69.691,0.188 -154.727,0.188 H 57.042 v -1.179 -1.178 h 154.595 154.594 l 0.133,0.991 m -0.067,15.096 c 10e-4,0.292 0.067,0.769 0.145,1.061 l 0.142,0.53 H 211.813 57.042 v -1.061 -1.061 h 154.626 154.625 l 0.004,0.531 m -0.004,15.233 c 0,0.243 0.067,0.773 0.148,1.178 l 0.147,0.737 H 211.815 57.042 v -1.179 -1.178 h 154.626 c 151.032,0 154.625,0.01 154.625,0.442 m 0.071,16.106 c 0.073,0.545 0.081,1.075 0.017,1.178 -0.063,0.103 -69.691,0.188 -154.727,0.188 H 57.042 v -1.179 -1.179 h 154.595 154.594 l 0.133,0.992 m -0.067,14.978 c 10e-4,0.356 0.067,0.887 0.145,1.178 l 0.142,0.531 H 211.813 57.042 v -1.179 -1.178 h 154.626 154.625 l 0.004,0.648 m 0,15.439 c 10e-4,0.292 0.067,0.769 0.145,1.061 l 0.142,0.53 H 211.813 57.042 v -1.061 -1.06 h 154.626 154.625 l 0.004,0.53 m -0.004,15.233 c 0,0.243 0.067,0.773 0.148,1.178 l 0.147,0.737 H 211.815 57.042 v -1.022 c 0,-0.561 0.071,-1.092 0.157,-1.178 0.45,-0.45 309.094,-0.166 309.094,0.285 m 0,15.556 c 0,0.244 0.067,0.774 0.148,1.179 l 0.147,0.737 H 211.815 57.042 v -1.179 -1.178 h 154.626 c 151.032,0 154.625,0.01 154.625,0.441 m 0.069,15.999 c 0.071,0.616 0.053,1.2 -0.04,1.297 -0.094,0.097 -69.694,0.15 -154.666,0.118 L 57.16,275.899 57.085,274.99 c -0.041,-0.5 -0.018,-1.057 0.052,-1.238 0.107,-0.28 22.685,-0.328 154.61,-0.328 h 154.485 l 0.13,1.119 m -0.069,14.88 c 0,0.243 0.067,0.773 0.148,1.178 l 0.147,0.737 H 211.815 57.042 v -1.179 -1.178 h 154.626 c 151.032,0 154.625,0.01 154.625,0.442 m 0,15.556 c 0,0.243 0.067,0.774 0.148,1.179 l 0.147,0.737 H 211.815 57.042 v -1.179 -1.179 h 154.626 c 151.032,0 154.625,0.011 154.625,0.442 m 0,15.322 c 0,0.243 0.067,0.773 0.148,1.178 l 0.147,0.737 H 211.815 57.042 v -1.179 -1.178 h 154.626 c 151.032,0 154.625,0.01 154.625,0.442 m 0.071,16.106 c 0.073,0.545 0.081,1.075 0.017,1.178 -0.063,0.103 -69.691,0.188 -154.727,0.188 H 57.042 v -1.179 -1.179 h 154.595 154.594 l 0.133,0.992 m -0.067,14.978 c 10e-4,0.356 0.067,0.887 0.145,1.178 l 0.142,0.531 H 211.813 57.042 v -1.022 c 0,-0.561 0.071,-1.092 0.157,-1.178 0.086,-0.087 69.668,-0.157 154.626,-0.157 h 154.468 l 0.004,0.648 m -0.004,15.35 c 0,0.243 0.067,0.774 0.148,1.179 l 0.147,0.737 H 211.815 57.042 v -1.179 -1.179 h 154.626 c 151.032,0 154.625,0.011 154.625,0.442 m 0,15.557 c 0,0.243 0.067,0.774 0.148,1.179 l 0.147,0.736 H 211.815 57.042 v -1.178 -1.179 h 154.626 c 151.032,0 154.625,0.011 154.625,0.442 m 0.004,15.528 c 10e-4,0.356 0.067,0.887 0.145,1.178 l 0.142,0.531 H 211.813 57.042 v -1.179 -1.179 h 154.626 154.625 l 0.004,0.649 m 0,15.321 c 10e-4,0.356 0.067,0.887 0.145,1.178 l 0.142,0.531 H 211.813 57.042 v -1.022 c 0,-0.561 0.071,-1.092 0.157,-1.178 0.086,-0.087 69.668,-0.157 154.626,-0.157 h 154.468 l 0.004,0.648 m -0.004,15.35 c 0,0.244 0.067,0.774 0.148,1.179 l 0.147,0.737 H 211.815 57.042 v -1.179 -1.179 h 154.626 c 151.032,0 154.625,0.011 154.625,0.442 m 0,15.557 c 0,0.243 0.067,0.774 0.148,1.179 l 0.147,0.736 H 211.815 57.042 v -1.178 -1.179 h 154.626 c 151.032,0 154.625,0.011 154.625,0.442 m 0.069,15.999 c 0.071,0.616 0.053,1.199 -0.04,1.297 -0.094,0.097 -69.694,0.15 -154.666,0.118 l -154.496,-0.06 -0.075,-0.908 c -0.041,-0.5 -0.018,-1.057 0.052,-1.238 0.107,-0.28 22.685,-0.328 154.61,-0.328 h 154.485 l 0.13,1.119 m -0.065,15.086 c 10e-4,0.356 0.067,0.886 0.145,1.178 l 0.142,0.53 H 211.813 57.042 v -1.178 -1.179 h 154.626 154.625 l 0.004,0.649 m 0,15.321 c 10e-4,0.356 0.067,0.887 0.145,1.178 l 0.142,0.531 H 211.813 57.042 v -1.179 -1.178 h 154.626 154.625 l 0.004,0.648 m -0.004,15.35 c 0,0.243 0.067,0.774 0.148,1.179 l 0.147,0.737 H 211.815 57.042 v -1.179 -1.179 h 154.626 c 151.032,0 154.625,0.011 154.625,0.442 m 0,15.557 c 0,0.243 0.067,0.774 0.148,1.179 l 0.147,0.736 H 211.815 57.042 v -1.178 -1.179 h 154.626 c 151.032,0 154.625,0.011 154.625,0.442"
     stroke="none"
     fill="#c984c9"
     fill-rule="evenodd"
     style="opacity:0" />
  <path
     id="path2"
     d="m 212.889,41.897 155.73,0.06 0.109,0.648 c 0.103,0.615 0.107,0.612 0.075,-0.059 L 368.768,41.839 212.964,41.838 H 57.16 l 155.729,0.059 m -78.475,247.26 c 42.489,0.033 112.018,0.033 154.508,0 42.489,-0.032 7.725,-0.059 -77.254,-0.059 -84.98,0 -119.744,0.027 -77.254,0.059"
     stroke="none"
     fill="#7c7c7c"
     fill-rule="evenodd" />
  <path
     id="path3"
     d="m 134.551,103.654 c 42.565,0.032 112.147,0.032 154.626,0 42.479,-0.033 7.653,-0.06 -77.391,-0.06 -85.045,0 -119.8,0.027 -77.235,0.06 m 0,216.381 c 42.565,0.033 112.147,0.033 154.626,0 42.479,-0.032 7.653,-0.059 -77.391,-0.059 -85.045,0 -119.8,0.027 -77.235,0.059 m 0,169.947 c 42.565,0.033 112.147,0.033 154.626,0 42.479,-0.032 7.653,-0.059 -77.391,-0.059 -85.045,0 -119.8,0.027 -77.235,0.059"
     stroke="none"
     fill="#9e9e9e"
     fill-rule="evenodd" />
  <path
     id="path4"
     d="m 134.551,72.775 c 42.565,0.033 112.147,0.033 154.626,0 42.479,-0.032 7.653,-0.059 -77.391,-0.059 -85.045,0 -119.8,0.027 -77.235,0.059 m 0,61.757 c 42.565,0.032 112.147,0.032 154.626,0 42.479,-0.033 7.653,-0.06 -77.391,-0.06 -85.045,0 -119.8,0.027 -77.235,0.06 m 0,17.678 c 42.565,0.033 112.147,0.033 154.626,0 42.479,-0.033 7.653,-0.06 -77.391,-0.06 -85.045,0 -119.8,0.027 -77.235,0.06 m 0,59.634 c 42.565,0.033 112.147,0.033 154.626,0 42.479,-0.032 7.653,-0.059 -77.391,-0.059 -85.045,0 -119.8,0.027 -77.235,0.059 m 0,125.87 c 42.565,0.032 112.147,0.032 154.626,0 42.479,-0.033 7.653,-0.06 -77.391,-0.06 -85.045,0 -119.8,0.027 -77.235,0.06 m 0,59.634 c 42.565,0.033 112.147,0.033 154.626,0 42.479,-0.033 7.653,-0.059 -77.391,-0.059 -85.045,0 -119.8,0.026 -77.235,0.059 m 0,30.878 c 42.565,0.033 112.147,0.033 154.626,0 42.479,-0.033 7.653,-0.059 -77.391,-0.059 -85.045,0 -119.8,0.026 -77.235,0.059 m -0.019,94.991 c 42.554,0.033 112.189,0.033 154.743,0 42.555,-0.032 7.737,-0.059 -77.372,-0.059 -85.109,0 -119.926,0.027 -77.371,0.059"
     stroke="none"
     fill="#bcbcbc"
     fill-rule="evenodd" />
  <path
     id="path5"
     d="m 366.293,89.884 c 0,0.366 -10.513,0.397 -154.566,0.452 L 57.16,90.395 211.734,90.454 c 162.76,0.062 155.622,0.099 154.706,-0.816 -0.08,-0.081 -0.147,0.03 -0.147,0.246 M 134.551,242.722 c 42.565,0.033 112.147,0.033 154.626,0 42.479,-0.032 7.653,-0.059 -77.391,-0.059 -85.045,0 -119.8,0.027 -77.235,0.059 m 0,30.878 c 42.565,0.033 112.147,0.033 154.626,0 42.479,-0.032 7.653,-0.059 -77.391,-0.059 -85.045,0 -119.8,0.027 -77.235,0.059 m 231.742,1.788 c 0,0.366 -10.513,0.396 -154.566,0.452 l -154.567,0.059 154.574,0.059 c 162.76,0.062 155.622,0.099 154.706,-0.816 -0.08,-0.081 -0.147,0.03 -0.147,0.246 m -231.742,75.525 c 42.565,0.033 112.147,0.033 154.626,0 42.479,-0.032 7.653,-0.059 -77.391,-0.059 -85.045,0 -119.8,0.027 -77.235,0.059 m 0,61.756 c 42.565,0.033 112.147,0.033 154.626,0 42.479,-0.032 7.653,-0.059 -77.391,-0.059 -85.045,0 -119.8,0.027 -77.235,0.059 m 0,48.792 c 42.565,0.033 112.147,0.033 154.626,0 42.479,-0.032 7.653,-0.059 -77.391,-0.059 -85.045,0 -119.8,0.027 -77.235,0.059"
     stroke="none"
     fill="#cccccc"
     fill-rule="evenodd" />
  <path
     id="path6"
     d="m 57.118,74.367 c 0.048,0.47 0.222,0.471 154.612,0.471 H 366.293 L 211.803,74.779 C 64.927,74.723 57.306,74.699 57.19,74.307 57.096,73.987 57.08,74 57.118,74.367 m 77.433,13.965 c 42.565,0.033 112.147,0.033 154.626,0 42.479,-0.032 7.653,-0.059 -77.391,-0.059 -85.045,0 -119.8,0.027 -77.235,0.059 m 0,30.878 c 42.565,0.033 112.147,0.033 154.626,0 42.479,-0.032 7.653,-0.059 -77.391,-0.059 -85.045,0 -119.8,0.027 -77.235,0.059 m -77.433,1.591 c 0.048,0.471 0.222,0.472 154.73,0.472 H 366.529 L 211.921,121.214 C 64.933,121.158 57.306,121.134 57.19,120.742 c -0.094,-0.32 -0.11,-0.307 -0.072,0.059 m 0,15.322 c 0.048,0.47 0.222,0.471 154.612,0.471 l 154.563,0.001 -154.49,-0.06 C 64.927,136.479 57.306,136.455 57.19,136.063 c -0.094,-0.32 -0.11,-0.306 -0.072,0.06 m 77.433,13.965 c 42.565,0.033 112.147,0.033 154.626,0 42.479,-0.032 7.653,-0.059 -77.391,-0.059 -85.045,0 -119.8,0.027 -77.235,0.059 m 0,30.878 c 42.565,0.033 112.147,0.033 154.626,0 42.479,-0.032 7.653,-0.059 -77.391,-0.059 -85.045,0 -119.8,0.027 -77.235,0.059 M 57.118,259.87 c 0.048,0.471 0.222,0.472 154.612,0.472 h 154.563 l -154.49,-0.059 C 64.927,260.226 57.306,260.203 57.19,259.811 c -0.094,-0.32 -0.11,-0.307 -0.072,0.059 m 0,46.435 c 0.048,0.471 0.222,0.472 154.612,0.472 h 154.563 l -154.49,-0.059 C 64.927,306.661 57.306,306.638 57.19,306.246 c -0.094,-0.32 -0.11,-0.307 -0.072,0.059 m 0,15.321 c 0.048,0.471 0.222,0.472 154.612,0.472 h 154.563 l -154.49,-0.059 C 64.927,321.983 57.306,321.959 57.19,321.567 c -0.094,-0.32 -0.11,-0.307 -0.072,0.059 m 77.433,13.966 c 42.565,0.033 112.147,0.033 154.626,0 42.479,-0.033 7.653,-0.059 -77.391,-0.059 -85.045,0 -119.8,0.026 -77.235,0.059 M 57.118,445.374 c 0.048,0.471 0.222,0.472 154.612,0.472 h 154.563 l -154.49,-0.059 C 64.927,445.73 57.306,445.707 57.19,445.315 c -0.094,-0.32 -0.11,-0.307 -0.072,0.059 m 0.005,15.332 c -0.077,0.2 -0.073,0.429 0.008,0.51 0.08,0.081 0.147,-0.03 0.147,-0.245 0,-0.366 10.513,-0.397 154.566,-0.452 l 154.567,-0.06 -154.574,-0.058 C 72.7,460.348 57.249,460.378 57.123,460.706 m 77.428,13.955 c 42.565,0.033 112.147,0.033 154.626,0 42.479,-0.033 7.653,-0.059 -77.391,-0.059 -85.045,0 -119.8,0.026 -77.235,0.059 m -0.137,30.878 c 42.489,0.033 112.018,0.033 154.508,0 42.489,-0.033 7.725,-0.059 -77.254,-0.059 -84.98,0 -119.744,0.026 -77.254,0.059 m -77.296,1.591 c 0.048,0.471 0.222,0.472 154.612,0.472 h 154.563 l -154.49,-0.059 C 64.927,507.486 57.306,507.463 57.19,507.071 c -0.094,-0.32 -0.11,-0.307 -0.072,0.059 m 77.433,13.966 c 42.565,0.033 112.147,0.033 154.626,0 42.479,-0.033 7.653,-0.06 -77.391,-0.06 -85.045,0 -119.8,0.027 -77.235,0.06"
     stroke="none"
     fill="#6c6c6c"
     fill-rule="evenodd" />
  <path
     id="path7"
     d="m 134.551,198.645 c 42.565,0.032 112.147,0.032 154.626,0 42.479,-0.033 7.653,-0.06 -77.391,-0.06 -85.045,0 -119.8,0.027 -77.235,0.06 m -77.419,59.797 c -0.071,0.187 -0.08,0.532 -0.02,0.766 0.073,0.279 0.12,0.203 0.138,-0.221 l 0.028,-0.648 154.449,-0.06 154.449,-0.059 -154.457,-0.059 C 77.386,258.11 57.246,258.147 57.132,258.442 m -0.035,31.481 c 0,0.454 0.048,0.64 0.107,0.413 0.06,-0.227 0.06,-0.598 0,-0.825 -0.059,-0.227 -0.107,-0.041 -0.107,0.412 m 77.454,94.225 c 42.565,0.033 112.147,0.033 154.626,0 42.479,-0.032 7.653,-0.059 -77.391,-0.059 -85.045,0 -119.8,0.027 -77.235,0.059 m -77.454,91.279 c 0,0.454 0.048,0.64 0.107,0.413 0.06,-0.227 0.06,-0.598 0,-0.825 -0.059,-0.227 -0.107,-0.042 -0.107,0.412"
     stroke="none"
     fill="#848484"
     fill-rule="evenodd" />
  <path
     id="path8"
     d="m 134.551,459.104 c 42.565,0.033 112.147,0.033 154.626,0 42.479,-0.033 7.653,-0.059 -77.391,-0.059 -85.045,0 -119.8,0.026 -77.235,0.059"
     stroke="none"
     fill="#c4c4c4"
     fill-rule="evenodd" />
  <path
     style="fill:#fd7555;stroke:#95aca2;stroke-width:0.647933;stroke-opacity:0;opacity:1;fill-opacity:0"
     d="M 0.32396629,282.82257 V 0.32396629 H 199.8872 399.45044 V 282.82257 565.32118 H 199.8872 0.32396629 Z M 367.05381,523.48693 c 0,-0.20161 -0.30183,-0.93054 -0.67073,-1.61983 -0.66026,-1.23369 -3.08435,-1.25327 -155.17985,-1.25327 H 56.694101 v 1.61983 1.61983 H 211.87395 c 85.34892,0 155.17986,-0.16495 155.17986,-0.36656 z m 0,-15.55038 c 0,-0.20161 -0.30183,-0.93054 -0.67073,-1.61983 -0.66026,-1.23369 -3.08435,-1.25327 -155.17985,-1.25327 H 56.694101 v 1.61983 1.61983 H 211.87395 c 85.34892,0 155.17986,-0.16495 155.17986,-0.36656 z m -0.50243,-15.54531 c 0.19882,-0.19881 0.2134,-0.92774 0.0324,-1.61983 -0.32462,-1.24141 -2.41224,-1.25835 -155.10936,-1.25835 H 56.694101 v 1.61983 1.61984 H 211.442 c 85.11134,0 154.91056,-0.16267 155.10938,-0.36149 z m 0.24778,-16.21379 c -0.21631,-0.56369 -0.39329,-1.29261 -0.39329,-1.61983 0,-0.35964 -61.24618,-0.59494 -154.85588,-0.59494 H 56.694101 v 1.61983 1.61983 H 211.94328 c 141.30074,0 155.21383,-0.0921 154.85588,-1.02489 z m -0.39329,-16.14532 v -1.61983 l -142.70715,0.002 c -78.48893,10e-4 -148.174079,0.19289 -154.855883,0.42641 -11.215479,0.39186 -12.148736,0.51615 -12.148736,1.61789 0,1.15595 4.863026,1.19342 154.855889,1.19342 h 154.85588 z m 0.39329,-14.95544 c -0.21631,-0.56369 -0.39329,-1.14683 -0.39329,-1.29587 0,-0.14903 -69.68515,-0.27097 -154.85588,-0.27097 -154.423934,0 -154.855889,0.004 -154.855889,1.29587 0,1.29226 0.431955,1.29586 155.249179,1.29586 141.30074,0 155.21383,-0.0921 154.85588,-1.02489 z m 0,-15.55038 c -0.21631,-0.56369 -0.39329,-1.14683 -0.39329,-1.29587 0,-0.14903 -69.68515,-0.27097 -154.85588,-0.27097 -154.423934,0 -154.855889,0.004 -154.855889,1.29586 0,1.29227 0.431955,1.29587 155.249179,1.29587 141.30074,0 155.21383,-0.0921 154.85588,-1.02489 z m -0.20555,-15.82136 c -0.33768,-1.2913 -0.88379,-1.29586 -155.11919,-1.29586 -154.348364,0 -154.780319,0.004 -154.780319,1.29586 0,1.29226 0.431955,1.29587 155.119189,1.29587 154.8002,0 155.1185,-0.003 154.78032,-1.29587 z m 0.20555,-14.63148 c -0.21631,-0.56368 -0.39329,-1.29261 -0.39329,-1.61983 0,-0.35963 -61.24618,-0.59494 -154.85588,-0.59494 H 56.694101 v 1.61984 1.61983 H 211.94328 c 141.30074,0 155.21383,-0.0921 154.85588,-1.0249 z m 0.24473,-15.01143 c -0.005,-0.26728 -0.28636,-0.92331 -0.62422,-1.45785 -0.54267,-0.85858 -18.63435,-0.99466 -155.16993,-1.16705 L 56.694101,381.24199 v 1.653 1.653 H 211.87395 c 85.34892,0 155.17539,-0.21868 155.16994,-0.48595 z m 0,-15.55039 c -0.005,-0.26727 -0.28636,-0.9233 -0.62422,-1.45784 -0.54268,-0.8586 -18.63271,-0.99439 -155.16993,-1.16481 L 56.694101,365.6961 v 1.65075 1.65075 H 211.87395 c 85.34892,0 155.17539,-0.21867 155.16994,-0.48595 z m -0.24473,-16.08932 c -0.21631,-0.56369 -0.39329,-1.29261 -0.39329,-1.61983 0,-0.68579 -262.12205,-0.83585 -291.140279,-0.16667 -17.442399,0.40223 -18.57149,0.50071 -18.57149,1.61983 0,1.15348 4.961855,1.19156 155.249179,1.19156 141.30074,0 155.21383,-0.0921 154.85588,-1.02489 z m -0.39329,-15.82136 c 0,-1.29224 -0.43195,-1.29586 -154.85588,-1.29586 -154.423934,0 -154.855889,0.004 -154.855889,1.29586 0,1.29225 0.431955,1.29587 154.855889,1.29587 154.42393,0 154.85588,-0.004 154.85588,-1.29587 z m 0.39329,-15.27941 c -0.21631,-0.56368 -0.39329,-1.14682 -0.39329,-1.29586 0,-0.14903 -69.68515,-0.27097 -154.85588,-0.27097 -154.423934,0 -154.855889,0.004 -154.855889,1.29586 0,1.29227 0.431955,1.29587 155.249179,1.29587 141.30074,0 155.21383,-0.0921 154.85588,-1.0249 z m 0.25465,-14.24411 c 0,-0.20161 -0.30183,-0.93054 -0.67073,-1.61983 -0.66026,-1.23369 -3.08435,-1.25327 -155.17985,-1.25327 H 56.694101 v 1.61983 1.61983 H 211.87395 c 85.34892,0 155.17986,-0.16495 155.17986,-0.36656 z m 0,-15.55038 c 0,-0.20162 -0.30183,-0.93054 -0.67073,-1.61984 -0.66026,-1.23369 -3.08435,-1.25327 -155.17985,-1.25327 H 56.694101 v 1.61984 1.61983 H 211.87395 c 85.34892,0 155.17986,-0.16495 155.17986,-0.36656 z m -0.50243,-15.54531 c 0.19882,-0.19881 0.21325,-0.92834 0.0321,-1.62116 -0.32525,-1.24376 -2.28402,-1.25762 -154.9474,-1.09637 l -154.617983,0.16332 -0.207048,1.45785 -0.207047,1.45785 H 211.39693 c 85.13613,0 154.95563,-0.16267 155.15445,-0.36149 z m 0.49251,-15.67485 c -0.005,-0.26727 -0.28636,-0.9233 -0.62422,-1.45784 -0.54266,-0.85858 -18.63516,-0.99479 -155.16993,-1.16817 L 56.694101,257.48464 v 1.65411 1.65411 H 211.87395 c 85.34892,0 155.17539,-0.21867 155.16994,-0.48595 z m 0,-15.55038 c -0.0452,-2.21357 2.27248,-2.17327 -147.45655,-2.56366 -80.50402,-0.2099 -150.088472,-0.16338 -154.632099,0.10337 -7.512958,0.44107 -8.26114,0.59645 -8.26114,1.71562 0,1.20545 3.174282,1.23062 155.179849,1.23062 85.34892,0 155.17539,-0.21868 155.16994,-0.48595 z m -0.24473,-16.08932 c -0.21631,-0.56369 -0.39329,-1.14683 -0.39329,-1.29587 0,-0.14903 -69.68515,-0.27097 -154.85588,-0.27097 -154.423934,0 -154.855889,0.004 -154.855889,1.29586 0,1.29227 0.431955,1.29587 155.249179,1.29587 141.30074,0 155.21383,-0.0921 154.85588,-1.02489 z m -0.20555,-15.82136 c -0.33768,-1.2913 -0.88379,-1.29586 -155.11919,-1.29586 -154.348364,0 -154.780319,0.004 -154.780319,1.29586 0,1.29226 0.431955,1.29587 155.119189,1.29587 154.8002,0 155.1185,-0.003 154.78032,-1.29587 z m -25.56323,-14.03582 c 24.03988,-0.40665 25.37549,-0.49191 25.37549,-1.61984 0,-1.15217 -4.9962,-1.19058 -154.85588,-1.19058 H 56.694101 v 1.61983 1.61983 H 186.1745 c 71.21422,0 140.89937,-0.19316 154.85588,-0.42924 z m 26.02343,-15.48771 c 0,-0.20161 -0.30183,-0.93053 -0.67073,-1.61983 -0.66026,-1.23369 -3.08435,-1.25327 -155.17985,-1.25327 H 56.694101 v 1.61983 1.61984 H 211.87395 c 85.34892,0 155.17986,-0.16495 155.17986,-0.36657 z m -0.25465,-16.20871 c -0.21631,-0.56369 -0.39329,-1.29261 -0.39329,-1.61983 0,-0.35964 -61.24618,-0.59494 -154.85588,-0.59494 H 56.694101 v 1.61983 1.61983 H 211.94328 c 141.30074,0 155.21383,-0.0921 154.85588,-1.02489 z m -0.39329,-16.14532 v -1.61983 H 211.54999 56.694101 v 1.61983 1.61983 H 211.54999 366.40587 Z m 0.63802,-14.4165 c -0.005,-0.26727 -0.28636,-0.9233 -0.62422,-1.45785 -0.54266,-0.85857 -18.63676,-0.99504 -155.16993,-1.17036 L 56.694101,133.72512 v 1.65631 1.65631 H 211.87395 c 85.34892,0 155.17539,-0.21868 155.16994,-0.48595 z m -0.24473,-16.08932 c -0.21631,-0.56369 -0.39329,-1.14683 -0.39329,-1.29587 0,-0.14903 -69.68515,-0.27097 -154.85588,-0.27097 -154.423934,0 -154.855889,0.004 -154.855889,1.29586 0,1.29227 0.431955,1.29587 155.249179,1.29587 141.30074,0 155.21383,-0.0921 154.85588,-1.02489 z m -0.20555,-15.82136 c -0.33768,-1.2913 -0.88379,-1.29586 -155.11919,-1.29586 -154.348364,0 -154.780319,0.004 -154.780319,1.29586 0,1.29226 0.431955,1.29587 155.119189,1.29587 154.8002,0 155.1185,-0.003 154.78032,-1.29587 z M 354.22818,90.610792 c 11.8721,-0.397603 12.63285,-0.497469 12.33934,-1.619831 -0.30299,-1.158633 -5.1611,-1.196097 -155.0931,-1.196097 -153.943471,0 -154.780319,0.007 -154.780319,1.285777 0,1.247756 0.541173,1.291168 18.304095,1.468352 40.723754,0.406202 267.448234,0.456384 279.229984,0.06181 z m 12.82563,-15.728297 c 0,-0.330912 -0.45818,-1.059837 -1.01818,-1.619832 -0.91991,-0.919915 -15.89679,-1.01818 -155.17986,-1.01818 H 56.694101 v 1.619831 1.619831 H 211.87395 c 95.06334,0 155.17986,-0.23308 155.17986,-0.60165 z m -0.01,-15.434681 c -0.0489,-2.396925 4.901,-2.313404 -155.76197,-2.628193 L 56.694101,56.516735 v 1.708515 1.708514 H 211.87395 c 85.34892,0 155.17539,-0.218678 155.16994,-0.48595 z M 368.9976,42.76355 V 41.143719 H 212.84585 56.694101 v 1.619831 1.619832 H 212.84585 368.9976 Z"
     id="path24831" />
</svg>
