<?xml version="1.0" encoding="UTF-8" standalone="no"?>
<svg
   role="img"
   focusable="false"
   aria-hidden="true"
   viewBox="0 0 14 14"
   version="1.1"
   id="svg7483"
   sodipodi:docname="livre.svg"
   inkscape:version="1.1 (c68e22c387, 2021-05-23)"
   xmlns:inkscape="http://www.inkscape.org/namespaces/inkscape"
   xmlns:sodipodi="http://sodipodi.sourceforge.net/DTD/sodipodi-0.dtd"
   xmlns="http://www.w3.org/2000/svg"
   xmlns:svg="http://www.w3.org/2000/svg">
  <defs
     id="defs7487" />
  <sodipodi:namedview
     id="namedview7485"
     pagecolor="#ffffff"
     bordercolor="#666666"
     borderopacity="1.0"
     inkscape:pageshadow="2"
     inkscape:pageopacity="0.0"
     inkscape:pagecheckerboard="0"
     showgrid="false"
     inkscape:zoom="62.357143"
     inkscape:cx="7"
     inkscape:cy="6.9358534"
     inkscape:window-width="2560"
     inkscape:window-height="1334"
     inkscape:window-x="-11"
     inkscape:window-y="-11"
     inkscape:window-maximized="1"
     inkscape:current-layer="svg7483" />
  <path
     d="M 6.55466,11.542 C 6.10897,11.0187 5.36501,10.459 4.6445,10.1049 3.91698,9.7473 3.22595,9.5487 2.44138,9.4719 2.28669,9.4569 2.15844,9.4429 2.15639,9.4409 c -0.002,0 0.002,-1.6151 0.01,-3.5846 l 0.0132,-3.5808 0.14284,0.014 c 0.87708,0.087 1.85601,0.4184 2.59669,0.8803 0.63833,0.398 1.29749,1.0126 1.71774,1.6015 l 0.10576,0.1482 0,3.4014 c 0,1.8707 -0.008,3.401 -0.0176,3.4007 -0.01,-3e-4 -0.0861,-0.081 -0.16992,-0.1794 z m 0.72656,-3.2297 0,-3.4156 0.20424,-0.2729 C 7.74623,4.2754 8.27075,3.7505 8.61758,3.491 9.54472,2.7971 10.55044,2.405 11.70505,2.287 l 0.14648,-0.015 0,3.5858 0,3.5859 -0.16992,0.016 C 10.0739,9.6093 8.6801,10.2726 7.5899,11.4068 l -0.30868,0.3212 0,-3.4156 z m 0.9961,3.1835 c 0.63101,-0.592 1.46635,-1.0624 2.30546,-1.2985 0.4391,-0.1235 1.01012,-0.2097 1.38918,-0.2097 0.19874,0 0.30898,-0.043 0.37116,-0.1451 0.0468,-0.077 0.0473,-0.1101 0.0474,-3.0157 l 8e-5,-2.9382 0.0879,0.016 c 0.0483,0.01 0.18544,0.048 0.30468,0.086 l 0.2168,0.069 0,3.6669 c 0,2.0168 -0.008,3.6669 -0.0179,3.6669 -0.01,0 -0.15489,-0.031 -0.32227,-0.069 -0.66143,-0.149 -1.20614,-0.2002 -1.92152,-0.1809 -0.86772,0.024 -1.54209,0.145 -2.34375,0.422 l -0.30469,0.1053 0.1875,-0.1759 z m -2.67188,0.057 C 5.27252,11.4336 4.7227,11.2931 4.35153,11.2325 c -0.50468,-0.082 -0.85286,-0.1038 -1.4714,-0.09 -0.61458,0.013 -0.98632,0.056 -1.49344,0.1711 -0.1418,0.032 -0.28682,0.065 -0.32227,0.072 l -0.0644,0.014 1.1e-4,-3.6767 1.2e-4,-3.6768 0.27529,-0.08 c 0.1514,-0.044 0.28847,-0.085 0.30458,-0.09 0.0233,-0.01 0.0293,0.589 0.0293,2.9349 0,3.2057 -0.007,3.027 0.12978,3.1169 0.0476,0.031 0.1465,0.045 0.42893,0.062 1.12246,0.064 2.18752,0.4409 3.05702,1.0822 0.1875,0.1383 0.63749,0.5181 0.66328,0.5598 0.018,0.029 0.006,0.026 -0.28292,-0.078 z"
     id="path7481" />
  <path
     style="fill:#6a6a6a;stroke:#6a6a6a;stroke-width:0.0160367"
     d="M 6.3825888,11.354089 C 5.8522069,10.817362 5.3549091,10.455057 4.6907216,10.121482 3.9430124,9.7459614 3.2726967,9.5509997 2.4215349,9.4614882 2.2804124,9.4466472 2.1642817,9.4333905 2.1634667,9.432029 c -0.00584,-0.00976 0.026235,-7.1368126 0.032147,-7.1427245 0.010466,-0.010466 0.3816901,0.037927 0.5947646,0.077534 0.5926896,0.1101711 1.2771902,0.3488838 1.8040552,0.6291462 0.7338608,0.3903724 1.4818883,1.0416638 2.0144382,1.7539275 L 6.7264862,4.9072167 6.726932,8.2859953 C 6.7271773,10.144323 6.721962,11.667898 6.71535,11.671716 6.70873,11.675516 6.5589926,11.532602 6.3825888,11.354089 Z"
     id="path7526" />
  <path
     style="fill:#6a6a6a;stroke:#6a6a6a;stroke-width:0.0160367"
     d="M 7.2886598,8.3027558 V 4.904163 L 7.4195813,4.7292864 C 7.7992282,4.222179 8.3380034,3.6942325 8.812142,3.3647144 c 0.8311606,-0.5776421 1.718015,-0.9189936 2.722787,-1.048005 0.134872,-0.017317 0.259378,-0.031486 0.276681,-0.031486 0.03116,0 0.03146,0.033931 0.03146,3.5761741 0,2.4721421 -0.0052,3.5761741 -0.01673,3.5761741 -0.06375,0 -0.512944,0.056936 -0.704155,0.089253 -0.958385,0.16198 -1.892477,0.5507924 -2.6522422,1.1039864 -0.3288771,0.23946 -0.5306764,0.41483 -0.8645601,0.751331 l -0.3167239,0.319207 z"
     id="path7565" />
  <path
     style="fill:#6a6a6a;stroke:#6a6a6a;stroke-width:0.0160367"
     d="m 8.1546392,11.629401 c 0,-0.02165 0.3816386,-0.350585 0.5693012,-0.490678 0.9399093,-0.701656 1.9709836,-1.075403 3.1436206,-1.1395107 0.149703,-0.00818 0.298904,-0.023542 0.331559,-0.03413 0.08779,-0.028463 0.159149,-0.1101312 0.176528,-0.2020306 0.0081,-0.043079 0.01848,-1.3484639 0.02349,-2.9675194 0.0067,-2.1683134 0.01357,-2.8906071 0.02745,-2.8906071 0.02371,0 0.214049,0.052265 0.417319,0.1145929 l 0.158909,0.048725 -0.0094,3.6483477 c -0.0052,2.0065911 -0.01337,3.6523382 -0.01825,3.6572162 -0.0049,0.0049 -0.147939,-0.02104 -0.317912,-0.0576 -0.686621,-0.147675 -0.9185,-0.17091 -1.696214,-0.16996 -0.489236,5.97e-4 -0.689149,0.0071 -0.878115,0.02834 -0.5607486,0.06319 -1.0341319,0.16728 -1.5849282,0.348514 -0.166804,0.05489 -0.3123006,0.103195 -0.3233258,0.107355 -0.011025,0.0042 -0.020046,0.0037 -0.020046,-0.0011 z"
     id="path7604" />
  <path
     style="fill:#6a6a6a;stroke:#6a6a6a;stroke-width:0.0160367"
     d="m 5.6769759,11.56917 c -0.3808373,-0.137667 -0.9392373,-0.280712 -1.371134,-0.351244 -0.3639956,-0.05944 -0.6706474,-0.08048 -1.1692423,-0.08022 -0.837192,4.38e-4 -1.2046942,0.04133 -2.0020062,0.222758 l -0.1323024,0.0301 V 7.7225576 4.0545471 l 0.2837999,-0.082343 c 0.15609,-0.045289 0.287791,-0.078356 0.292669,-0.073482 0.00488,0.00487 0.01351,1.2837791 0.019182,2.8420114 0.00681,1.8715564 0.016181,2.8787704 0.027603,2.9675625 0.032573,0.2532266 0.016616,0.2466029 0.7398624,0.307119 0.6942839,0.05809 1.3680946,0.245761 2.0126003,0.560544 0.4498514,0.219712 0.7545071,0.420376 1.1682745,0.769494 0.3312044,0.279455 0.3411628,0.288327 0.3231344,0.287881 -0.00882,-2.18e-4 -0.095418,-0.02909 -0.1924399,-0.06416 z"
     id="path7643" />
</svg>
