<?xml version="1.0" encoding="UTF-8" standalone="no"?>
<svg
   inkscape:export-ydpi="576"
   inkscape:export-xdpi="576"
   inkscape:export-filename="D:\Project Real\DESEMBER\export solid\png\02 - Bus.png"
   width="64pt"
   height="64pt"
   viewBox="0 0 22.577778 22.577778"
   version="1.1"
   id="svg831"
   inkscape:version="1.1 (c68e22c387, 2021-05-23)"
   sodipodi:docname="sac.svg"
   xmlns:inkscape="http://www.inkscape.org/namespaces/inkscape"
   xmlns:sodipodi="http://sodipodi.sourceforge.net/DTD/sodipodi-0.dtd"
   xmlns="http://www.w3.org/2000/svg"
   xmlns:svg="http://www.w3.org/2000/svg"
   xmlns:rdf="http://www.w3.org/1999/02/22-rdf-syntax-ns#"
   xmlns:cc="http://creativecommons.org/ns#"
   xmlns:dc="http://purl.org/dc/elements/1.1/">
  <defs
     id="defs825">
    <pattern
       id="EMFhbasepattern"
       patternUnits="userSpaceOnUse"
       width="6"
       height="6"
       x="0"
       y="0" />
    <pattern
       id="EMFhbasepattern-9"
       patternUnits="userSpaceOnUse"
       width="6"
       height="6"
       x="0"
       y="0" />
    <pattern
       id="EMFhbasepattern-0"
       patternUnits="userSpaceOnUse"
       width="6"
       height="6"
       x="0"
       y="0" />
    <pattern
       id="EMFhbasepattern-7"
       patternUnits="userSpaceOnUse"
       width="6"
       height="6"
       x="0"
       y="0" />
    <pattern
       id="EMFhbasepattern-2"
       patternUnits="userSpaceOnUse"
       width="6"
       height="6"
       x="0"
       y="0" />
    <pattern
       id="EMFhbasepattern-98"
       patternUnits="userSpaceOnUse"
       width="6"
       height="6"
       x="0"
       y="0" />
    <pattern
       id="EMFhbasepattern-6"
       patternUnits="userSpaceOnUse"
       width="6"
       height="6"
       x="0"
       y="0" />
    <pattern
       id="EMFhbasepattern-01"
       patternUnits="userSpaceOnUse"
       width="6"
       height="6"
       x="0"
       y="0" />
    <pattern
       id="EMFhbasepattern-07"
       patternUnits="userSpaceOnUse"
       width="6"
       height="6"
       x="0"
       y="0" />
    <pattern
       id="EMFhbasepattern-8"
       patternUnits="userSpaceOnUse"
       width="6"
       height="6"
       x="0"
       y="0" />
    <pattern
       id="EMFhbasepattern-4"
       patternUnits="userSpaceOnUse"
       width="6"
       height="6"
       x="0"
       y="0" />
    <pattern
       id="EMFhbasepattern-40"
       patternUnits="userSpaceOnUse"
       width="6"
       height="6"
       x="0"
       y="0" />
    <pattern
       id="EMFhbasepattern-08"
       patternUnits="userSpaceOnUse"
       width="6"
       height="6"
       x="0"
       y="0" />
    <pattern
       id="EMFhbasepattern-04"
       patternUnits="userSpaceOnUse"
       width="6"
       height="6"
       x="0"
       y="0" />
    <pattern
       id="EMFhbasepattern-014"
       patternUnits="userSpaceOnUse"
       width="6"
       height="6"
       x="0"
       y="0" />
    <pattern
       id="EMFhbasepattern-27"
       patternUnits="userSpaceOnUse"
       width="6"
       height="6"
       x="0"
       y="0" />
    <pattern
       id="EMFhbasepattern-09"
       patternUnits="userSpaceOnUse"
       width="6"
       height="6"
       x="0"
       y="0" />
    <pattern
       id="EMFhbasepattern-5"
       patternUnits="userSpaceOnUse"
       width="6"
       height="6"
       x="0"
       y="0" />
    <pattern
       id="EMFhbasepattern-018"
       patternUnits="userSpaceOnUse"
       width="6"
       height="6"
       x="0"
       y="0" />
  </defs>
  <sodipodi:namedview
     id="base"
     pagecolor="#ffffff"
     bordercolor="#666666"
     borderopacity="1.0"
     inkscape:pageopacity="0.0"
     inkscape:pageshadow="2"
     inkscape:zoom="6.2578125"
     inkscape:cx="9.3483146"
     inkscape:cy="29.163546"
     inkscape:document-units="pt"
     inkscape:current-layer="layer1"
     showgrid="false"
     units="pt"
     inkscape:window-width="2560"
     inkscape:window-height="1334"
     inkscape:window-x="-11"
     inkscape:window-y="-11"
     inkscape:window-maximized="1"
     inkscape:pagecheckerboard="true"
     inkscape:showpageshadow="false"
     inkscape:object-paths="true"
     inkscape:snap-intersection-paths="true"
     inkscape:snap-smooth-nodes="true"
     inkscape:snap-midpoints="true"
     showguides="true"
     inkscape:snap-bbox="true"
     inkscape:bbox-nodes="true"
     inkscape:snap-nodes="false"
     inkscape:snap-global="true"
     inkscape:document-rotation="0">
    <inkscape:grid
       type="xygrid"
       id="grid1378" />
    <sodipodi:guide
       position="0.97013831,21.607643"
       orientation="78.000048,0"
       id="guide1380"
       inkscape:locked="false" />
    <sodipodi:guide
       position="0.97013831,0.97013129"
       orientation="0,78.000005"
       id="guide1382"
       inkscape:locked="false" />
    <sodipodi:guide
       position="21.607639,0.97013129"
       orientation="-78.000048,0"
       id="guide1384"
       inkscape:locked="false" />
    <sodipodi:guide
       position="21.607639,21.607643"
       orientation="0,-78.000005"
       id="guide1386"
       inkscape:locked="false" />
  </sodipodi:namedview>
  <metadata
     id="metadata828">
    <rdf:RDF>
      <cc:Work
         rdf:about="">
        <dc:format>image/svg+xml</dc:format>
        <dc:type
           rdf:resource="http://purl.org/dc/dcmitype/StillImage" />
      </cc:Work>
    </rdf:RDF>
  </metadata>
  <g
     inkscape:label="Icon"
     inkscape:groupmode="layer"
     id="layer1"
     transform="translate(0,-274.42223)">
    <path
       sodipodi:nodetypes="cccscccccsccscsccscccccsccccscsccccccccccccscscccsccccscccscccscccccsccccscccccsscssscccccsccccscccscccsssscccccccccsssscccsccsc"
       d="m 18.052191,293.73495 c 0.01957,-3.1622 0.04018,-6.31666 0.06046,-9.47807 -0.196386,-0.53683 -0.446723,-1.05489 -0.741485,-1.54344 0.20424,-0.38353 0.391272,-0.77648 0.553854,-1.18414 0.134409,-0.33703 0.229259,-0.91023 0.231411,-1.2731 l 0.0278,-4.40443 c 0.0016,-0.25326 -0.203305,-0.4594 -0.456565,-0.45935 h -0.725504 c -0.193561,-7.2e-4 -0.352216,0.15327 -0.357191,0.34677 -0.02936,1.16968 -0.08718,2.27853 -0.273105,3.17301 -0.157779,0.75908 -0.406752,1.3444 -0.765112,1.71439 -0.133656,-0.11377 -0.270994,-0.22194 -0.411396,-0.32592 -0.04427,-1.27661 -0.456368,-2.4606 -1.120912,-3.35301 -0.696673,-0.93554 -1.68907,-1.56135 -2.802629,-1.55524 -1.110829,0.007 -2.0977194,0.62833 -2.7894266,1.56011 -0.6585619,0.88712 -1.0630498,2.06486 -1.1007602,3.3384 -0.1396458,0.10315 -0.2763565,0.21024 -0.4093104,0.32315 -0.3522038,-0.37063 -0.5978998,-0.95091 -0.7539927,-1.70188 -0.1859229,-0.89448 -0.2437488,-2.00333 -0.2731056,-3.17301 -0.00494,-0.1935 -0.1636298,-0.34757 -0.357191,-0.34677 H 4.862528 c -0.2532594,-5e-5 -0.4581476,0.20609 -0.4565606,0.45935 l 0.027788,4.40443 c 0.00214,0.36287 0.096999,0.93607 0.2314096,1.2731 0.159947,0.40106 0.343882,0.78769 0.5441233,1.16538 -0.299727,0.4958 -0.5522498,1.0221 -0.7505164,1.56775 l 0.059764,9.45166 0.9308483,0.81342 c 0.2279178,0.19132 0.4610273,0.35377 0.7112549,0.49583 1.3509641,0.76697 3.1414253,0.99711 5.0924049,1.00624 1.950978,0.009 3.75095,-0.20232 5.113947,-0.9562 0.27642,-0.15289 0.532131,-0.33151 0.78596,-0.54795 z M 11.27946,277.52792 c 0.797283,-0.004 1.525757,0.71388 1.730361,1.67268 -0.562102,-0.16286 -1.14978,-0.25163 -1.756768,-0.24878 v -7.1e-4 c -0.583274,0.003 -1.148468,0.0881 -1.6893611,0.24392 0.1959057,-0.95511 0.9139191,-1.66274 1.7157681,-1.66712 z m 3.756066,4.78247 c 0.962482,0.99144 1.602141,2.38091 1.914516,4.0243 0.03783,0.19287 -0.08788,0.37987 -0.28075,0.41766 -0.19399,0.0376 -0.381521,-0.09 -0.417649,-0.28423 -0.292723,-1.54001 -0.885331,-2.79821 -1.725497,-3.66364 -0.839003,-0.86424 -1.918669,-1.35268 -3.267534,-1.36344 -1.3845383,0.0262 -2.451941,0.5295 -3.2696183,1.39749 -0.8187924,0.86917 -1.3832357,2.12062 -1.6657338,3.63516 -0.035182,0.19382 -0.2211653,0.32217 -0.4148695,0.2863 -0.1927006,-0.0366 -0.3195174,-0.22206 -0.2835292,-0.41486 0.3006937,-1.61212 0.9063052,-2.99717 1.8464139,-3.99513 0.9401087,-0.99796 2.2222721,-1.59261 3.7835149,-1.62057 1.528275,0.0108 2.818253,0.58953 3.780736,1.58096 z m -6.9499377,3.04447 c 2.1355027,0 4.2710047,0 6.4065067,0 0.196503,7.8e-4 0.35518,0.16068 0.354412,0.35718 -7.48e-4,0.19542 -0.158993,0.35366 -0.354412,0.35441 h -0.255038 v 1.06672 c 7.83e-4,0.1965 -0.157907,0.35642 -0.354411,0.35718 -0.19759,8e-4 -0.357964,-0.15959 -0.35719,-0.35718 v -1.06672 H 8.0855883 c -0.1954196,-7.4e-4 -0.3536497,-0.15899 -0.3544115,-0.35441 -7.828e-4,-0.1965 0.1579075,-0.35641 0.3544115,-0.35718 z m 11.8512377,2.13481 -1.134116,7.1e-4 -0.009,1.4232 h 0.678247 c 0.196504,-7.8e-4 0.356424,0.1579 0.357191,0.35441 7.83e-4,0.19759 -0.1596,0.35796 -0.357191,0.3572 H 18.78954 l -0.0048,0.71229 h 0.332128 c 0.195691,3.9e-4 0.354342,0.15872 0.355105,0.35441 7.84e-4,0.19678 -0.158329,0.35681 -0.355105,0.3572 h -0.336344 l -0.01318,2.0528 1.65253,-1.45935 c 9.24e-4,-9.3e-4 0.0019,-10e-4 0.0028,-0.003 0.56899,-0.51078 0.937453,-1.22717 0.937453,-2.01458 v -0.71161 c 0,-0.7818 -0.641406,-1.4239 -1.423204,-1.4239 z m -17.2959708,7.1e-4 c -0.7817985,0 -1.4232049,0.6414 -1.4232049,1.4232 v 0.71161 c 0,0.78741 0.3684712,1.50377 0.9374544,2.01458 0.00107,9.2e-4 0.00178,10e-4 0.00285,0.003 l 1.6448868,1.44336 -0.01252,-2.03683 H 3.4609202 c -0.196776,-3.9e-4 -0.355876,-0.16041 -0.3551074,-0.35718 7.115e-4,-0.1957 0.1594166,-0.35403 0.3551074,-0.35441 h 0.3245297 l -0.00417,-0.71231 h -0.67546 c -0.1975908,7.8e-4 -0.357961,-0.15959 -0.357189,-0.35718 7.116e-4,-0.19651 0.1606871,-0.35519 0.357189,-0.35441 h 0.6706035 l -0.00904,-1.42322 z m 4.3787191,1.066 h 8.5385337 c 0.197583,-7.4e-4 0.357945,0.15961 0.357192,0.3572 v 1.88045 c 0,1.5678 -1.279293,2.8471 -2.847104,2.8471 H 9.5094881 c -1.5678121,0 -2.8471062,-1.2793 -2.8471048,-2.8471 v -1.88046 c -7.472e-4,-0.19759 0.1596085,-0.35795 0.357191,-0.3572 z m 0.6921445,0.71161 c 1.1559253,1.45308 2.3577562,2.13544 3.5309102,2.13551 1.171503,5e-5 2.40018,-0.68376 3.605267,-2.13551 z m 7.4919782,0.67755 c -1.243078,1.41515 -2.586336,2.16962 -3.961068,2.16955 -1.3631378,-8e-5 -2.677378,-0.74715 -3.8686432,-2.14176 v 0.8207 c 0,1.18322 0.952269,2.1355 2.1355023,2.1355 h 3.5587079 c 1.183233,0 2.135501,-0.95228 2.135501,-2.1355 z m -4.625415,0.0347 h 1.42112 c 0.197591,-7.8e-4 0.357964,0.15961 0.357191,0.3572 -7.83e-4,0.19651 -0.160687,0.35517 -0.357191,0.35441 h -1.42112 c -0.196504,7.8e-4 -0.356425,-0.1579 -0.357191,-0.35441 -7.83e-4,-0.19759 0.1596,-0.35797 0.357191,-0.3572 z"
       style="color:#000000;font-style:normal;font-variant:normal;font-weight:normal;font-stretch:normal;font-size:medium;line-height:normal;font-family:sans-serif;font-variant-ligatures:normal;font-variant-position:normal;font-variant-caps:normal;font-variant-numeric:normal;font-variant-alternates:normal;font-variant-east-asian:normal;font-feature-settings:normal;font-variation-settings:normal;text-indent:0;text-align:start;text-decoration:none;text-decoration-line:none;text-decoration-style:solid;text-decoration-color:#000000;letter-spacing:normal;word-spacing:normal;text-transform:none;writing-mode:lr-tb;direction:ltr;text-orientation:mixed;dominant-baseline:auto;baseline-shift:baseline;text-anchor:start;white-space:normal;shape-padding:0;shape-margin:0;inline-size:0;clip-rule:nonzero;display:inline;overflow:visible;visibility:visible;isolation:auto;mix-blend-mode:normal;color-interpolation:sRGB;color-interpolation-filters:linearRGB;solid-color:#000000;solid-opacity:1;vector-effect:none;fill:#000000;fill-opacity:1;fill-rule:nonzero;stroke:none;stroke-width:0.529167;stroke-linecap:round;stroke-linejoin:round;stroke-miterlimit:1.5;stroke-dasharray:none;stroke-dashoffset:0;stroke-opacity:1;color-rendering:auto;image-rendering:auto;shape-rendering:auto;text-rendering:auto;enable-background:accumulate;stop-color:#000000"
       id="path1197" />
    <path
       style="fill:#6a6a6a;stroke:none;stroke-width:0.1598;fill-opacity:1"
       d="M 38.35206,81.482627 C 33.379875,81.057122 30.680687,80.593771 27.805243,79.672125 24.283252,78.543247 22.486666,77.490887 19.241705,74.655989 l -2.091628,-1.827311 -0.113562,-17.81399 -0.113562,-17.81399 0.665429,-1.551357 c 0.365986,-0.853247 1.010569,-2.186565 1.432406,-2.962929 l 0.766978,-1.41157 -0.704076,-1.415199 c -0.387241,-0.778359 -0.921744,-1.973702 -1.187785,-2.656316 -1.003726,-2.575392 -0.999014,-2.519435 -1.071516,-12.722993 -0.05009,-7.0492376 -0.01917,-9.4436674 0.12648,-9.7953007 0.310254,-0.749018 0.866864,-0.9297274 2.86369,-0.9297274 1.646394,0 1.799735,0.026733 2.14737,0.3743678 0.347824,0.3478245 0.381779,0.5432685 0.478896,2.7565544 0.328473,7.4858949 0.949099,11.3092259 2.302869,14.1866979 0.574946,1.222063 1.343971,2.337811 1.611328,2.337811 0.06565,0 0.446625,-0.254963 0.846604,-0.566583 0.724278,-0.564281 0.727685,-0.571587 0.838396,-1.797753 0.861767,-9.54441 6.740782,-16.8005339 13.968813,-17.2408846 2.052437,-0.1250399 3.582339,0.2046261 5.69154,1.2264226 5.218767,2.528218 8.879783,8.671389 9.588376,16.089256 0.108122,1.131875 0.11941,1.154532 0.905469,1.817346 l 0.795983,0.671182 0.461736,-0.538944 c 1.315222,-1.535142 2.448864,-4.926651 2.931001,-8.768657 0.280786,-2.237496 0.578358,-6.4963448 0.578358,-8.2774409 0,-2.0185634 0.274779,-2.2574318 2.60469,-2.264293 1.864672,-0.00549 2.494744,0.1788184 2.856275,0.8355231 0.246114,0.4470583 0.207596,17.2512328 -0.04399,19.1884478 -0.228802,1.761817 -0.660404,3.065305 -1.81098,5.469371 l -0.999157,2.08769 0.692056,1.268116 c 0.38063,0.697464 1.0138,2.00033 1.407046,2.895254 l 0.71499,1.627139 -0.07988,16.98959 c -0.04393,9.344277 -0.117151,17.423594 -0.162708,17.954039 l -0.08283,0.964449 -1.917631,1.672255 c -3.542149,3.088904 -6.117951,4.465427 -10.351071,5.531671 -3.584438,0.902856 -6.259732,1.184374 -11.843044,1.246233 -2.68065,0.0297 -5.197503,0.02631 -5.593009,-0.0075 z m 13.662921,-9.069032 c 1.918789,-0.534247 3.550506,-1.483336 4.95644,-2.882912 1.447031,-1.440489 2.075709,-2.435838 2.736271,-4.332181 0.442317,-1.269803 0.445713,-1.310747 0.504961,-6.087402 l 0.05965,-4.808998 -0.399468,-0.46441 -0.399468,-0.464409 h -16.8067 -16.806699 l -0.399468,0.464409 -0.399467,0.46441 0.05965,4.808998 c 0.05925,4.776655 0.06264,4.817599 0.50496,6.087402 0.657224,1.88676 1.289162,2.888159 2.727482,4.322098 1.839363,1.833761 3.889838,2.834155 6.377822,3.111639 0.629315,0.07019 4.559941,0.109771 8.734723,0.08796 6.519046,-0.03405 7.725855,-0.07733 8.549313,-0.306609 z M 53.460446,49.06594 c 0.380496,-0.380494 0.392238,-0.461825 0.392238,-2.716605 v -2.324366 h 0.771147 c 0.618163,0 0.846415,-0.08012 1.150561,-0.40387 0.507627,-0.540344 0.507627,-1.368521 0,-1.908865 L 55.394975,41.308365 H 42.666667 29.938358 l -0.379416,0.403869 c -0.507627,0.540344 -0.507627,1.368521 0,1.908865 l 0.379416,0.40387 h 10.503977 10.503977 l 0.05494,2.331135 c 0.05484,2.327295 0.05567,2.331772 0.503294,2.716605 0.604532,0.519732 1.43227,0.516867 1.955905,-0.0068 z M 23.225861,46.564121 c 0.525973,-0.239649 0.682202,-0.593787 1.07243,-2.43098 0.507764,-2.390553 1.340224,-4.764515 2.475495,-7.059483 2.976911,-6.017865 7.479986,-9.434882 13.575777,-10.301549 3.402222,-0.48371 7.16518,0.187922 10.266086,1.832342 5.007096,2.655278 8.69806,8.12781 10.346519,15.340618 0.365729,1.600238 0.514947,1.990333 0.901616,2.357053 0.522536,0.495578 0.907643,0.545844 1.567525,0.204605 0.76393,-0.395042 0.84142,-0.951003 0.402991,-2.891315 C 62.239541,36.55766 59.088833,31.121455 54.663619,27.792402 50.024861,24.3027 44.333415,23.047642 38.47452,24.222437 32.185815,25.483416 27.360036,29.38592 24.206823,35.760419 c -1.096796,2.217274 -2.298943,5.705141 -2.788242,8.089712 -0.268112,1.306634 -0.28013,1.57077 -0.09196,2.021133 0.341766,0.817962 1.054222,1.077872 1.899236,0.692857 z M 38.192763,17.657825 c 3.11516,-0.63483 6.618642,-0.576357 9.718593,0.162203 0.67421,0.160629 1.255644,0.262243 1.292081,0.225807 0.129828,-0.129827 -0.344949,-1.444301 -0.917302,-2.539654 -2.214262,-4.237606 -7.050746,-5.062605 -10.102684,-1.723299 -0.844018,0.923491 -1.811896,2.753592 -1.999625,3.780972 -0.100262,0.548693 -0.08082,0.612216 0.159166,0.520124 0.150358,-0.0577 0.982754,-0.249466 1.849771,-0.426153 z"
       id="path5528"
       transform="matrix(0.26458333,0,0,0.26458333,0,274.42223)" />
    <path
       style="fill:#6a6a6a;fill-opacity:1;stroke-width:0.1598"
       d="M 41.548065,64.063726 C 38.631393,63.571278 37.338214,63.074855 35.070441,61.577111 33.410589,60.480866 30.63049,57.92638 29.750762,56.689139 l -0.369279,-0.519351 h 13.288668 13.288667 l -1.062966,1.187678 c -2.805964,3.135172 -6.381401,5.543029 -9.361407,6.304385 -1.226715,0.313411 -3.282718,0.520681 -3.98638,0.401875 z m 4.826254,-2.900988 c 0.541654,-0.542205 0.500045,-1.550596 -0.08474,-2.053606 -0.436754,-0.375679 -0.501506,-0.38254 -3.610274,-0.38254 -2.929965,0 -3.195965,0.02393 -3.574325,0.321548 -0.513138,0.403633 -0.683967,1.123355 -0.404818,1.705538 0.379253,0.790954 0.724946,0.858393 4.162181,0.81198 3.029446,-0.04091 3.165977,-0.05657 3.511976,-0.40292 z"
       id="path5789"
       transform="matrix(0.26458333,0,0,0.26458333,0,274.42223)" />
    <path
       style="fill:#6a6a6a;fill-opacity:1;stroke-width:0.1598"
       d="m 34.436954,69.725599 c -1.329549,-0.251709 -3.089147,-1.198666 -4.093431,-2.20295 -1.682486,-1.682486 -2.378479,-3.605856 -2.378479,-6.572902 v -1.864504 l 1.318352,1.355568 c 3.246141,3.337776 6.768821,5.468236 10.220479,6.181181 1.586204,0.327633 4.417521,0.327922 6.005983,6.07e-4 3.438374,-0.708484 6.724217,-2.639088 10.140579,-5.958111 l 1.717853,-1.668907 v 1.909335 c 0,2.160674 -0.221653,3.232803 -0.978194,4.731501 -1.002548,1.986037 -3.341196,3.687019 -5.642916,4.104294 -1.181254,0.214148 -15.167703,0.201189 -16.310226,-0.01511 z"
       id="path5828"
       transform="matrix(0.26458333,0,0,0.26458333,0,274.42223)" />
    <path
       style="fill:#6a6a6a;fill-opacity:1;stroke-width:0.1598"
       d="m 71.008363,68.154806 c 0.05587,-1.274406 0.101842,-2.982272 0.102164,-3.795255 l 5.84e-4,-1.478153 h 0.886165 c 1.100754,0 1.670639,-0.457824 1.670639,-1.342127 0,-0.889532 -0.531574,-1.371404 -1.637952,-1.484808 l -0.918852,-0.09418 v -1.157085 -1.157084 l 1.512845,-0.06617 c 1.322467,-0.05784 1.563781,-0.114018 1.917603,-0.446417 0.582324,-0.547065 0.573989,-1.606428 -0.01629,-2.070744 -0.357889,-0.281515 -0.645551,-0.331198 -1.917603,-0.331198 H 71.111114 V 52.08168 49.431776 l 2.756554,0.05315 c 2.640958,0.05092 2.794686,0.07187 3.665832,0.49967 1.17359,0.576316 2.402668,1.908675 2.792623,3.027292 0.238459,0.684035 0.291852,1.317492 0.286378,3.397599 -0.0076,2.885432 -0.177864,3.704064 -1.160913,5.581438 -0.853599,1.630155 -1.955889,2.730387 -8.162987,8.147748 l -0.381814,0.333236 z"
       id="path5867"
       transform="matrix(0.26458333,0,0,0.26458333,0,274.42223)" />
    <path
       style="fill:#6a6a6a;fill-opacity:1;stroke-width:0.1598;stroke:#6a6a6a;stroke-opacity:1"
       d="M 11.186017,67.616377 C 7.6032468,64.458334 6.637373,63.433975 5.8817489,61.990926 4.8888691,60.09478 4.7215427,59.292542 4.7176021,56.409488 4.7147671,54.335352 4.7694392,53.69396 5.007213,53.011889 5.3971684,51.893272 6.6262465,50.560913 7.7998363,49.984597 8.6700816,49.557245 8.8274427,49.535684 11.465668,49.482315 l 2.756554,-0.05576 v 2.652517 2.652517 H 12.72567 c -1.272052,0 -1.559714,0.04968 -1.917603,0.331198 -0.590281,0.464316 -0.598617,1.523679 -0.01629,2.070744 0.353823,0.332399 0.595136,0.388577 1.917603,0.446417 l 1.512845,0.06617 v 1.157084 1.157085 l -0.918851,0.09418 c -1.106379,0.113404 -1.637953,0.595276 -1.637953,1.484808 0,0.884303 0.569885,1.342127 1.670639,1.342127 h 0.886165 v 3.675406 c 0,2.021473 -0.01798,3.673159 -0.03995,3.670412 -0.02197,-0.0027 -1.370287,-1.177624 -2.996255,-2.610839 z"
       id="path5906"
       transform="matrix(0.26458333,0,0,0.26458333,0,274.42223)" />
    <path
       style="fill:#6a6a6a;fill-opacity:1;stroke:#6a6a6a;stroke-width:0.1598;stroke-opacity:1"
       d="m 37.233458,81.310368 c -4.234305,-0.429336 -6.956779,-0.943342 -9.625566,-1.817314 -3.313651,-1.085152 -5.30635,-2.288197 -8.642141,-5.217492 l -1.655243,-1.453537 -0.0987,-5.489664 c -0.05428,-3.019316 -0.112343,-11.062698 -0.12902,-17.874184 l -0.03032,-12.384519 0.675542,-1.518102 c 0.371549,-0.834957 1.008762,-2.13901 1.416031,-2.897896 l 0.740487,-1.379794 -0.915267,-1.913121 c -1.274843,-2.664717 -1.681695,-3.957213 -1.869692,-5.93967 -0.08826,-0.930732 -0.160536,-5.513488 -0.160609,-10.183901 -1.56e-4,-9.9356964 -0.157079,-9.1122505 1.777861,-9.3292453 1.497489,-0.1679366 2.989982,0.012245 3.269662,0.3947303 0.230005,0.3145506 0.303154,1.010275 0.546882,5.2014559 0.292093,5.0228661 0.822868,8.2229931 1.779636,10.7296981 0.598809,1.568866 1.625069,3.172924 2.030004,3.172924 0.166393,0 0.605705,-0.269663 0.976249,-0.599251 0.657063,-0.584439 0.677359,-0.632825 0.821138,-1.957553 0.333034,-3.068456 1.094707,-5.745322 2.341674,-8.229713 0.961121,-1.914887 1.764661,-3.072054 3.134977,-4.5146405 2.594146,-2.7309605 5.202899,-3.9940428 8.570223,-4.1494503 2.284175,-0.1054184 3.298562,0.1213853 5.513109,1.2326603 3.43955,1.7259899 6.053027,4.7087943 7.771407,8.8696325 0.774846,1.876192 1.20312,3.521017 1.581113,6.072409 l 0.307772,2.077404 0.813307,0.780395 0.813306,0.780395 0.461901,-0.540694 c 0.577194,-0.675656 1.465103,-2.451539 1.908231,-3.816601 0.837489,-2.5799 1.67955,-8.989758 1.588888,-12.0947722 -0.01883,-0.6449717 0.0128,-1.2197098 0.07028,-1.2771955 0.05748,-0.057486 0.104519,-0.4109937 0.104519,-0.7855731 0,-1.2043073 0.435791,-1.399514 2.942301,-1.3179643 2.53948,0.082622 2.341644,-0.4091812 2.440022,6.0656581 0.04458,2.934217 0.0081,7.384379 -0.08112,9.889248 -0.189623,5.324907 -0.256538,5.650398 -1.892618,9.206187 l -1.050217,2.282497 0.581539,1.057978 c 0.319845,0.581889 0.938841,1.840091 1.375543,2.796003 l 0.794006,1.738024 0.0074,11.548261 c 0.0073,11.482506 -0.118863,23.547783 -0.253226,24.214369 -0.136582,0.677591 -5.009156,4.505124 -7.051341,5.53901 -3.154011,1.596764 -7.437038,2.627944 -12.354063,2.974361 -2.130561,0.150103 -10.040309,0.19092 -11.345818,0.05855 z m 15.340824,-8.980483 c 1.756958,-0.621084 2.87869,-1.320261 4.30437,-2.682917 1.534255,-1.466429 2.200932,-2.458624 2.829225,-4.210643 0.410607,-1.144992 0.431031,-1.351765 0.473356,-4.79213 0.02433,-1.977528 0.09465,-4.186671 0.156264,-4.909205 0.107659,-1.262466 0.09525,-1.335693 -0.31812,-1.877652 L 59.589229,53.293383 H 42.666667 25.744105 l -0.410384,0.538041 -0.410384,0.538041 0.0891,2.697914 c 0.04901,1.483853 0.111227,3.704656 0.138268,4.935118 0.04273,1.944219 0.105132,2.393913 0.476518,3.433828 0.627707,1.757635 1.292737,2.743773 2.861483,4.243142 1.056716,1.009984 1.726587,1.498506 2.716604,1.981162 2.257244,1.100458 2.483009,1.120804 11.940754,1.076095 8.293808,-0.03921 8.401363,-0.04385 9.428215,-0.406839 z m 0.908552,-23.219163 c 0.354345,-0.332889 0.36985,-0.446779 0.36985,-2.716604 v -2.369149 h 0.781299 c 1.096001,0 1.535805,-0.380125 1.535805,-1.327407 0,-0.480279 -0.100347,-0.827324 -0.304418,-1.05282 L 55.560952,41.308365 H 42.666667 29.772381 l -0.304418,0.336377 c -0.199777,0.220752 -0.304417,0.572026 -0.304417,1.021925 0,0.449898 0.10464,0.801173 0.304417,1.021924 0.303595,0.335469 0.332801,0.336378 10.804209,0.336378 h 10.49979 l 0.10077,0.838951 c 0.05542,0.461423 0.101395,1.507554 0.102159,2.324734 0.0013,1.400582 0.02564,1.508254 0.424223,1.877653 0.559143,0.518196 1.55677,0.53946 2.08372,0.04442 z M 23.570868,46.356269 c 0.223476,-0.223476 0.477027,-0.884688 0.71265,-1.85845 1.91426,-7.911108 5.385749,-13.198828 10.366499,-15.790099 2.590728,-1.347845 5.016648,-1.941178 7.93675,-1.941178 5.916781,0 10.969964,2.788976 14.427512,7.962901 1.712586,2.562735 2.693109,4.861841 3.725446,8.73532 0.716151,2.687109 1.074315,3.27681 1.990219,3.27681 0.612868,0 1.276929,-0.486282 1.414933,-1.036134 0.203999,-0.812795 -1.423889,-7.113679 -1.837881,-7.113679 -0.08996,0 -0.123236,-0.06525 -0.07395,-0.14499 0.125961,-0.203809 -0.863679,-2.458736 -1.764545,-4.020572 -3.208397,-5.562414 -7.878395,-9.053905 -13.806826,-10.322574 -1.912889,-0.409354 -6.078127,-0.403881 -8.069913,0.01059 -5.396278,1.122948 -9.672604,4.033662 -12.766708,8.689758 -1.10911,1.66902 -2.379379,4.147539 -2.240679,4.371961 0.04671,0.07558 0.01625,0.137412 -0.06768,0.137412 -0.226177,0 -1.417007,3.466007 -1.969446,5.73223 -0.516449,2.118582 -0.511682,2.762667 0.02471,3.338413 0.4345,0.46638 1.519858,0.451324 1.998913,-0.02773 z M 37.967053,17.78479 c 2.314149,-0.515201 7.08235,-0.511678 9.473282,0.007 0.91166,0.197772 1.693326,0.323822 1.737035,0.280113 0.167645,-0.167645 -0.151993,-1.236596 -0.693324,-2.318653 -2.060632,-4.118961 -6.409562,-5.316478 -9.701139,-2.671295 -1.116342,0.897117 -2.668051,3.608361 -2.668051,4.66179 0,0.47623 -0.09325,0.474163 1.852197,0.04105 z"
       id="path6574"
       transform="matrix(0.26458333,0,0,0.26458333,0,274.42223)" />
    <path
       style="fill:#6a6a6a;fill-opacity:1;stroke:#6a6a6a;stroke-width:0.1598;stroke-opacity:1"
       d="m 36.993758,81.312508 c -4.840881,-0.583985 -7.055262,-1.008069 -9.369671,-1.794426 -3.626668,-1.232218 -5.174826,-2.179295 -9.026432,-5.52187 l -1.297476,-1.126001 -0.10137,-5.274057 c -0.05575,-2.90073 -0.119027,-10.990911 -0.140606,-17.978176 l -0.03923,-12.70412 1.390442,-2.823811 1.390442,-2.823813 -0.936595,-2.050095 c -1.26717,-2.773683 -1.588489,-3.795684 -1.765561,-5.615612 -0.08284,-0.851451 -0.152479,-5.44125 -0.154747,-10.199553 -0.0048,-10.0417155 -0.13234,-9.287765 1.608713,-9.5087697 0.563128,-0.071482 1.513998,-0.085813 2.113045,-0.031848 0.894019,0.080538 1.131735,0.1630717 1.326695,0.4606189 0.169308,0.2583975 0.30286,1.3420847 0.465048,3.7735709 0.386308,5.7914419 0.718917,8.2830929 1.435543,10.7539979 0.455161,1.569378 1.484028,3.686888 2.049545,4.218163 0.3549,0.333412 0.369062,0.334122 0.907224,0.0455 0.854068,-0.458042 1.099418,-0.919823 1.284752,-2.418079 0.735664,-5.947155 3.014368,-10.62295 6.737195,-13.8244083 2.231214,-1.918742 4.447479,-2.801967 7.320678,-2.9174354 2.18288,-0.087726 3.244004,0.1309849 5.230841,1.07814 2.306101,1.0993538 3.980698,2.4772979 5.558723,4.5740024 2.183688,2.9014413 3.473372,6.2486683 4.14846,10.7668553 0.272563,1.824187 0.425545,2.160706 1.27777,2.81073 0.55455,0.422975 0.572747,0.425714 0.894398,0.134624 0.477491,-0.432122 1.402153,-2.152259 1.851466,-3.44426 0.946839,-2.722635 1.59011,-6.993785 1.742807,-11.5717654 0.09397,-2.8173241 0.258576,-3.8978176 0.635829,-4.1736723 0.201409,-0.1472736 0.858267,-0.2118364 2.155214,-0.2118364 2.592554,0 2.625585,0.02904 2.763654,2.4297671 0.115809,2.0136465 0.122105,10.575365 0.0105,14.269359 -0.123542,4.088852 -0.384962,5.206871 -2.073765,8.868914 l -0.847485,1.837703 1.347107,2.734219 1.347105,2.734219 -0.01445,14.684008 c -0.0079,8.076204 -0.06172,16.226531 -0.1195,18.111836 l -0.105061,3.427828 -1.278402,1.111207 c -2.25112,1.956709 -4.39564,3.454927 -6.21661,4.343091 -3.016431,1.471239 -7.110718,2.442241 -11.760918,2.789224 -1.987504,0.148301 -10.638355,0.189566 -11.745318,0.05603 z m 15.260924,-8.932196 c 1.186942,-0.359814 2.651471,-1.108787 3.474238,-1.776755 0.948406,-0.769969 2.686172,-2.60093 2.638121,-2.779603 -0.02197,-0.0817 0.03011,-0.148548 0.115747,-0.148548 0.08563,0 0.267254,-0.215731 0.403604,-0.479401 0.13635,-0.26367 0.204969,-0.479401 0.152489,-0.479401 -0.05248,0 0.01569,-0.111117 0.151509,-0.246925 0.135807,-0.135809 0.396384,-0.729068 0.579055,-1.318352 0.293246,-0.945988 0.330822,-1.460034 0.32094,-4.390702 -0.0062,-1.825603 0.06797,-3.970347 0.164723,-4.766101 0.173571,-1.427515 0.170379,-1.455194 -0.239115,-2.073982 l -0.415035,-0.627159 -16.896609,5e-6 -16.896609,5e-6 -0.459782,0.57624 c -0.428073,0.536497 -0.452983,0.64395 -0.361184,1.558047 0.05423,0.539994 0.13802,2.599786 0.186202,4.577314 0.04818,1.977528 0.122042,3.867444 0.164131,4.199811 0.09606,0.758556 0.852483,2.671599 1.056358,2.671599 0.08373,0 0.116134,0.05842 0.07201,0.129819 -0.135595,0.219398 0.451011,0.971312 1.905249,2.44216 1.886652,1.908202 3.706901,2.867748 6.014003,3.170293 0.556068,0.07292 4.606538,0.109067 9.001045,0.08033 6.898669,-0.04512 8.110061,-0.08865 8.868914,-0.318689 z m 0.799001,-23.081935 c 0,-0.08789 0.08401,-0.141823 0.186687,-0.11985 0.431227,0.09228 0.6076,-0.756675 0.609959,-2.935973 l 0.0024,-2.176922 0.80062,-0.07693 c 1.048159,-0.100716 1.436584,-0.45525 1.436584,-1.311246 0,-0.362328 -0.110801,-0.816967 -0.246224,-1.01031 l -0.246222,-0.351531 -12.92701,-0.0054 -12.927012,-0.0054 -0.249987,0.356908 c -0.375671,0.536344 -0.325283,1.641396 0.09259,2.030708 0.334911,0.312018 0.575308,0.319386 10.736503,0.329078 5.716657,0.0054 10.429676,0.04567 10.473375,0.08937 0.0437,0.0437 0.12014,1.091304 0.169865,2.32801 0.08915,2.217247 0.09665,2.253922 0.538771,2.633898 0.453927,0.390112 1.549142,0.549566 1.549142,0.225529 z M 23.348319,46.512276 c 0.382048,-0.159326 0.549023,-0.58811 1.177534,-3.023845 1.352423,-5.241189 3.387119,-9.071214 6.37912,-12.007782 2.235648,-2.194228 4.791124,-3.641801 7.487037,-4.241103 0.505368,-0.112345 0.918851,-0.255048 0.918851,-0.317119 0,-0.06207 1.38427,-0.1036 3.076155,-0.09229 2.648616,0.01771 3.257771,0.0703 4.382886,0.378421 3.034385,0.830978 5.277456,2.093892 7.487646,4.215761 3.055984,2.933869 4.92946,6.349359 6.436752,11.734695 0.344392,1.230464 0.747129,2.471118 0.894968,2.75701 0.692176,1.33852 2.490632,0.894908 2.490632,-0.614347 0,-1.234454 -1.411567,-6.54608 -1.776087,-6.683285 -0.07783,-0.0293 -0.141516,-0.20107 -0.141516,-0.381718 0,-0.516407 -1.62768,-3.744118 -2.684251,-5.322905 -3.063837,-4.578155 -7.663566,-7.710306 -12.896273,-8.781619 -1.492261,-0.305516 -5.679272,-0.341655 -7.489776,-0.06465 -1.342389,0.205386 -4.124629,1.060792 -4.293046,1.319907 -0.06457,0.09934 -0.118505,0.12579 -0.11985,0.05877 -0.0035,-0.174385 -2.154386,0.932067 -3.228002,1.66054 -3.033582,2.058355 -5.681704,5.238499 -7.308956,8.77736 -0.977948,2.126793 -1.158614,2.544081 -1.18944,2.747287 -0.01669,0.110052 -0.07261,0.272003 -0.12426,0.359893 -0.478335,0.813986 -1.57501,5.093603 -1.57501,6.146248 0,1.338621 0.847659,1.894897 2.094886,1.374767 z M 37.433208,17.890754 c 0.329589,-0.05973 0.599251,-0.154524 0.599251,-0.210661 0,-0.11478 0.01214,-0.115635 3.755306,-0.264334 2.172021,-0.08628 3.052965,-0.0542 4.394507,0.160027 0.922847,0.14737 1.993959,0.308578 2.38025,0.358241 l 0.702347,0.0903 -0.107234,-0.462848 c -0.05898,-0.254566 -0.392241,-1.047516 -0.74058,-1.762112 -0.760124,-1.559343 -1.948013,-2.819439 -3.296662,-3.497048 -0.849332,-0.426735 -1.083008,-0.470035 -2.533626,-0.469478 -1.437055,5.6e-4 -1.683953,0.04547 -2.45137,0.445947 -0.469352,0.244932 -1.171288,0.738379 -1.559855,1.096549 -0.709422,0.653922 -1.874751,2.387721 -1.874751,2.78929 0,0.118197 -0.04854,0.214904 -0.107873,0.214904 -0.127048,0 -0.478062,1.111655 -0.478062,1.514016 0,0.207787 0.09123,0.256533 0.359551,0.19212 0.197753,-0.04747 0.629213,-0.135181 0.958801,-0.194908 z"
       id="path6613"
       transform="matrix(0.26458333,0,0,0.26458333,0,274.42223)" />
    <path
       style="fill:#6a6a6a;fill-opacity:1;stroke:#6a6a6a;stroke-width:0.1598;stroke-opacity:1"
       d="m 41.148564,63.934897 c -0.08789,-0.03445 -0.699126,-0.18544 -1.358302,-0.33554 -2.347129,-0.534463 -4.638012,-1.857002 -7.305881,-4.217726 -0.810245,-0.716963 -1.808306,-1.714953 -2.217914,-2.217756 l -0.744741,-0.914187 6.57247,-0.04172 c 3.614859,-0.02295 9.538763,-0.02295 13.164231,0 l 6.59176,0.04172 -1.837703,1.837859 c -2.879686,2.879933 -6.013655,4.879469 -8.634594,5.509048 -0.987542,0.237219 -3.894044,0.469709 -4.229326,0.338302 z m 4.714108,-2.486686 c 0,-0.08513 0.100404,-0.116256 0.223121,-0.06916 0.299227,0.114824 0.73568,-0.536545 0.73568,-1.097944 0,-0.559616 -0.380821,-1.322688 -0.72626,-1.455245 -0.142275,-0.0546 -1.73039,-0.09927 -3.529146,-0.09927 h -3.270466 l -0.391871,0.422835 c -0.40164,0.433377 -0.55973,1.494768 -0.222639,1.494768 0.09308,0 0.133777,0.05737 0.09044,0.12748 -0.106254,0.171921 0.07236,0.420876 0.459425,0.640369 0.405549,0.229972 6.631711,0.263928 6.631711,0.03617 z"
       id="path6652"
       transform="matrix(0.26458333,0,0,0.26458333,0,274.42223)" />
    <path
       style="fill:#6a6a6a;fill-opacity:1;stroke:#6a6a6a;stroke-width:0.1598;stroke-opacity:1"
       d="m 34.137738,69.575389 c -1.079846,-0.25358 -2.86005,-1.304924 -3.799544,-2.243918 -1.53398,-1.533164 -2.091,-3.071269 -2.30425,-6.362754 l -0.10839,-1.67298 1.606903,1.527898 c 2.948757,2.803781 5.471787,4.455333 8.295626,5.430241 l 1.562679,0.539503 3.116104,-0.0034 c 2.986661,-0.0033 3.172531,-0.02218 4.474407,-0.454458 3.00937,-0.999227 5.824149,-2.829358 8.911221,-5.79395 l 1.64031,-1.575231 -0.02126,1.518103 c -0.01465,1.045768 -0.05922,1.368944 -0.143249,1.038701 -0.09923,-0.389945 -0.126244,-0.300488 -0.1448,0.479401 -0.08418,3.538085 -2.390355,6.459597 -5.916664,7.49537 -0.746246,0.219192 -1.967489,0.252691 -8.709113,0.23889 -4.312638,-0.0088 -8.119626,-0.08145 -8.459975,-0.161368 z"
       id="path6691"
       transform="matrix(0.26458333,0,0,0.26458333,0,274.42223)" />
    <path
       style="fill:#6a6a6a;fill-opacity:1;stroke:#6a6a6a;stroke-width:0.1598;stroke-opacity:1"
       d="m 71.005415,69.672909 c 0.0562,-0.351561 0.10297,-2.023471 0.103937,-3.715356 l 0.0018,-3.076155 h 0.928669 c 1.188745,0 1.586079,-0.321792 1.599516,-1.295416 0.0156,-1.130706 -0.270697,-1.376301 -1.928934,-1.654673 l -0.599251,-0.100598 v -1.010552 -1.010551 l 0.599251,-0.09905 c 0.329588,-0.05448 0.958802,-0.100901 1.398252,-0.103164 0.854893,-0.0044 1.623443,-0.306148 1.558053,-0.611718 -0.02197,-0.102677 0.02416,-0.186686 0.102526,-0.186686 0.247425,0 0.340498,-0.741058 0.158606,-1.262834 -0.245948,-0.705526 -0.552244,-0.814569 -2.28808,-0.814569 H 71.111111 V 52.100668 49.46975 l 2.676654,0.09159 c 2.324968,0.07956 2.785313,0.139907 3.503644,0.459297 1.121403,0.498609 2.19135,1.523655 2.725295,2.610928 0.436392,0.888625 0.442614,0.943785 0.435186,3.857819 -0.0072,2.808386 -0.02863,3.009848 -0.429072,4.026408 -0.902711,2.291605 -1.714805,3.259352 -5.715702,6.811216 -3.816417,3.38809 -3.423694,3.109055 -3.301701,2.345897 z"
       id="path6730"
       transform="matrix(0.26458333,0,0,0.26458333,0,274.42223)" />
    <path
       style="fill:#6a6a6a;fill-opacity:1;stroke:#6a6a6a;stroke-width:0.1598;stroke-opacity:1"
       d="M 11.745318,67.981907 C 7.234947,64.021566 6.0157663,62.593875 5.2508054,60.376669 4.9099597,59.388742 4.8744488,59.014677 4.8741916,56.409488 c -2.784e-4,-2.819852 0.00842,-2.894129 0.4424375,-3.777919 0.5313983,-1.082086 1.597611,-2.10665 2.7252951,-2.618838 0.7279189,-0.330617 1.1476442,-0.386144 3.5036438,-0.46351 l 2.676654,-0.0879 v 2.63513 2.635131 l -1.398252,0.01843 c -1.988278,0.02621 -2.171434,0.08759 -2.424078,0.812323 -0.177246,0.508447 -0.07999,1.246648 0.164248,1.246648 0.07836,0 0.124499,0.05393 0.102527,0.11985 -0.02197,0.06592 0.0011,0.11985 0.05136,0.11985 0.05022,0 0.208633,0.117319 0.352023,0.260709 0.156078,0.156078 0.536295,0.264505 0.947387,0.270168 0.377674,0.0052 1.028252,0.05643 1.44573,0.113837 l 0.759051,0.104378 v 1.006609 c 0,1.089596 -0.08899,1.200604 -0.96244,1.200604 -0.251295,0 -0.502068,0.07308 -0.557273,0.162407 -0.0552,0.08932 -0.163028,0.123684 -0.239605,0.07636 -0.311275,-0.192378 -0.784975,0.60238 -0.771098,1.293722 0.01335,0.664973 0.494823,1.4018 0.870578,1.332291 0.07796,-0.01442 0.486243,-0.0177 0.907307,-0.0073 l 0.765571,0.01892 -0.04265,2.357054 c -0.02346,1.296379 -0.08033,2.88598 -0.12637,3.532445 l -0.08372,1.17539 z"
       id="path6769"
       transform="matrix(0.26458333,0,0,0.26458333,0,274.42223)" />
    <path
       style="fill:#6a6a6a;fill-opacity:1;stroke:#6a6a6a;stroke-width:0.1598;stroke-opacity:1"
       d="m 34.836454,81.096174 c -3.069166,-0.433412 -5.259412,-0.90315 -7.191011,-1.542242 -3.285435,-1.087025 -5.195781,-2.222294 -8.533414,-5.071186 l -1.853602,-1.582171 -0.0072,-1.693734 c -0.0039,-0.931552 -0.03657,-2.053283 -0.07251,-2.492734 -0.03594,-0.43945 -0.104642,-7.757027 -0.152671,-16.261279 l -0.08733,-15.462279 1.432945,-2.862539 1.432944,-2.862538 -0.879993,-1.86563 c -1.189728,-2.522284 -1.671154,-4.027423 -1.837427,-5.744565 -0.07685,-0.793673 -0.14168,-5.370423 -0.144062,-10.170555 -0.0051,-10.2830122 -0.159832,-9.4678778 1.832662,-9.6545897 1.721034,-0.1612742 2.904042,0.015371 3.207814,0.478985 0.229673,0.3505248 0.382644,1.6668713 0.622739,5.3587978 0.04858,0.7470659 0.122165,1.6818979 0.163513,2.0774029 0.04135,0.395506 0.115318,1.114607 0.164377,1.598003 0.04906,0.483396 0.12016,1.058677 0.158,1.278402 0.03784,0.219725 0.111298,0.723096 0.163239,1.118602 0.257285,1.959091 1.58284,6.020752 2.025239,6.205575 0.07013,0.0293 0.127501,0.126062 0.127501,0.215032 0,0.343561 0.676921,1.090004 0.988483,1.090004 0.180135,0 0.599578,-0.27206 0.932095,-0.604575 0.518062,-0.518063 0.620623,-0.741019 0.716715,-1.558053 0.740985,-6.300327 3.188411,-11.3212563 7.016515,-14.3944844 2.384378,-1.914194 4.763556,-2.7787175 7.647065,-2.7787175 1.909845,0 3.105459,0.281431 4.813877,1.1331191 3.202755,1.5966535 5.521893,3.9815976 7.289256,7.4960948 1.200365,2.386987 1.883086,4.726418 2.414419,8.273309 0.187646,1.252623 0.236121,1.359547 0.923721,2.037453 0.399123,0.3935 0.773401,0.715455 0.831726,0.715455 0.462071,0 1.951292,-2.931596 2.469306,-4.860932 0.373338,-1.39049 0.933083,-4.483502 1.101279,-6.085385 0.139701,-1.330493 0.424821,-5.8521029 0.386608,-6.1310547 -0.08202,-0.5987447 0.23576,-1.9928249 0.51878,-2.2758453 0.262683,-0.2626823 0.551885,-0.3022139 2.210907,-0.3022139 1.787136,0 1.937246,0.024555 2.357054,0.3855725 l 0.448361,0.3855725 0.0799,6.6855889 c 0.08146,6.816011 -0.10341,12.088917 -0.483268,13.784019 -0.213837,0.954239 -0.89717,2.712971 -1.873221,4.821217 l -0.635577,1.372833 1.329281,2.622173 1.329282,2.622175 0.02596,10.147316 c 0.03339,13.053053 0.0092,17.727506 -0.116325,22.451935 l -0.101874,3.835206 -1.53488,1.315941 c -3.993967,3.424257 -6.469252,4.753158 -10.9514,5.87945 -3.654836,0.918401 -5.361153,1.074748 -12.316313,1.128526 -5.443077,0.04209 -6.505373,0.0096 -8.389514,-0.256457 z M 51.45568,72.473252 c 0.691509,-0.09955 1.538156,-0.397249 2.532922,-0.89062 1.20488,-0.597579 1.747183,-0.99348 2.80057,-2.044505 1.426582,-1.423384 2.169691,-2.316341 2.174212,-2.612638 0.0016,-0.104839 0.144859,-0.431205 0.318354,-0.725257 0.173495,-0.294053 0.337373,-0.675691 0.364173,-0.848085 0.0268,-0.172394 0.106638,-0.406269 0.177417,-0.519717 0.144515,-0.23164 0.234067,-2.210781 0.323281,-7.14454 0.05631,-3.11411 0.03807,-3.39321 -0.253252,-3.875156 l -0.31393,-0.519351 H 42.763431 25.947435 l -0.4454,0.464898 c -0.24497,0.255693 -0.444026,0.633221 -0.442349,0.838951 0.02325,2.850832 0.240625,8.759882 0.351223,9.547597 0.13534,0.96394 0.977849,2.965777 1.584256,3.764254 0.136012,0.179093 0.798256,0.875482 1.471654,1.547533 1.660185,1.656862 3.611027,2.760918 5.410834,3.062199 0.826952,0.138429 16.583686,0.09759 17.578027,-0.04556 z m 1.643185,-23.214825 c 0.235675,-0.109863 0.477226,-0.307616 0.536782,-0.439451 0.05956,-0.131835 0.14075,-1.264419 0.18043,-2.516854 l 0.07215,-2.277153 h 0.437784 c 1.447485,0 2.147345,-1.032134 1.521064,-2.243225 L 55.604259,41.312192 H 42.666667 29.729074 l -0.242814,0.469552 c -0.133548,0.258253 -0.242814,0.675108 -0.242814,0.926344 0,0.72965 0.337784,1.035105 1.295018,1.171069 0.474257,0.06736 5.223132,0.12773 10.553053,0.134146 8.682424,0.01045 9.700861,0.03797 9.787765,0.264436 0.05335,0.139023 0.101141,0.948012 0.106207,1.797753 0.01393,2.338661 0.123602,2.768979 0.790711,3.102787 0.665855,0.333179 0.766753,0.339293 1.322665,0.08015 z m 10.63659,-3.108644 c 0.332311,-0.372491 0.362386,-0.518159 0.266097,-1.288837 -0.15197,-1.216321 -1.110564,-4.956096 -1.487566,-5.803454 -0.172622,-0.387987 -0.405668,-0.957117 -0.517883,-1.264733 -0.448492,-1.229457 -1.989045,-4.063546 -2.921212,-5.374028 -1.030347,-1.448509 -2.835798,-3.394878 -3.769361,-4.063564 -0.299561,-0.214568 -0.623157,-0.465463 -0.719101,-0.557546 -0.257342,-0.246984 -1.824949,-1.253237 -2.651348,-1.701911 -1.230069,-0.667837 -3.114192,-1.391608 -4.501921,-1.729376 -1.667591,-0.405885 -5.535864,-0.580503 -7.600068,-0.343075 -2.089395,0.240325 -5.65943,1.47042 -7.553442,2.602619 -1.770503,1.058368 -4.351039,3.386996 -5.355304,4.832529 -0.174682,0.251436 -0.400852,0.545278 -0.502599,0.65298 -0.685305,0.72542 -2.799795,4.750568 -3.488214,6.640174 -0.462534,1.269585 -1.008326,3.036204 -0.938026,3.036204 0.03749,0 8.63e-4,0.125843 -0.08142,0.279651 -0.08227,0.153807 -0.188316,0.495381 -0.235647,0.759051 -0.04733,0.26367 -0.17005,0.929101 -0.27271,1.478735 -0.300697,1.609918 0.03241,2.276571 1.137518,2.276571 0.81896,0 1.185982,-0.377539 1.508528,-1.55176 0.81487,-2.966509 1.458312,-4.953298 2.085093,-6.438253 2.361502,-5.594808 6.317708,-9.533039 11.096587,-11.046168 0.659176,-0.208713 1.221125,-0.429388 1.248777,-0.490387 0.02765,-0.061 0.154408,-0.07095 0.281685,-0.02211 0.127276,0.04884 0.323541,0.01234 0.436144,-0.08111 0.133646,-0.110917 1.312003,-0.154535 3.393721,-0.125624 2.950007,0.04097 3.296698,0.07711 4.62631,0.48226 5.063526,1.542911 8.851219,4.913861 11.417192,10.161004 0.751801,1.537352 1.333326,3.159352 2.407537,6.715144 0.753811,2.49523 1.640135,3.142528 2.690631,1.965014 z M 37.959924,17.646953 c 0.09194,-0.07363 0.30767,-0.133688 0.479401,-0.133464 0.17173,2.24e-4 1.642573,-0.04627 3.26854,-0.103321 2.530325,-0.08878 3.267155,-0.05659 5.113608,0.223415 1.186517,0.179929 2.208807,0.275825 2.271756,0.213102 0.183148,-0.182491 -0.907353,-2.522711 -1.607918,-3.450604 -0.698228,-0.924797 -1.833328,-1.831704 -2.790484,-2.229505 -2.261833,-0.940033 -5.24581,-0.08616 -6.735385,1.927343 -0.911587,1.23222 -1.974868,3.543527 -1.777246,3.863286 0.09625,0.155736 1.502254,-0.08964 1.777728,-0.310252 z"
       id="path6808"
       transform="matrix(0.26458333,0,0,0.26458333,0,274.42223)" />
    <path
       style="fill:#6a6a6a;fill-opacity:1;stroke:#6a6a6a;stroke-width:0.1598;stroke-opacity:1"
       d="m 34.436954,69.650632 c -1.475757,-0.331859 -3.425155,-1.474622 -4.413787,-2.58742 -1.210093,-1.362072 -1.641026,-2.550699 -2.040527,-5.628309 -0.325834,-2.510107 -0.422009,-2.474991 1.620356,-0.591641 3.148723,2.903569 5.5373,4.446341 8.381999,5.413897 1.265593,0.430461 1.614014,0.477287 3.89977,0.524106 1.380505,0.02828 2.92198,-0.01319 3.425501,-0.09215 2.987781,-0.46853 6.725584,-2.560485 9.82082,-5.496469 0.395506,-0.375156 1.096629,-1.036113 1.558053,-1.468791 l 0.838951,-0.786689 -0.0024,1.532666 c -0.0017,1.048586 -0.05137,1.456959 -0.157355,1.292966 -0.111119,-0.171944 -0.155598,-0.0073 -0.157354,0.582418 -0.0056,1.87825 -1.215698,4.283137 -2.781748,5.528262 -0.448913,0.356918 -1.35553,0.907802 -2.014706,1.224186 l -1.198502,0.575246 -8.229713,0.0248 c -4.526342,0.01364 -8.373533,-0.0075 -8.549313,-0.04707 z"
       id="path6847"
       transform="matrix(0.26458333,0,0,0.26458333,0,274.42223)" />
  </g>
</svg>
